<svg width="24" height="24" viewBox="0 0 24 24" fill="none" xmlns="http://www.w3.org/2000/svg">
<path d="M9.00001 12.0002L11 14.0002L15 10.0002M7.94636 4.24996L6.25195 4.23728C5.1357 4.22892 4.22868 5.13594 4.23704 6.25219L4.24972 7.9466C4.25377 8.4874 4.03863 9.00679 3.65336 9.38633L2.44627 10.5755C1.65105 11.3589 1.65105 12.6416 2.44627 13.425L3.65336 14.6141C4.03863 14.9937 4.25377 15.5131 4.24972 16.0539L4.23704 17.7483C4.22868 18.8645 5.1357 19.7715 6.25195 19.7632L7.94636 19.7505C8.48716 19.7465 9.00655 19.9616 9.38609 20.3469L10.5753 21.554C11.3587 22.3492 12.6414 22.3492 13.4248 21.554L14.6139 20.3469C14.9935 19.9616 15.5129 19.7465 16.0537 19.7505L17.7481 19.7632C18.8643 19.7715 19.7713 18.8645 19.763 17.7483L19.7503 16.0539C19.7463 15.5131 19.9614 14.9937 20.3467 14.6141L21.5538 13.425C22.349 12.6416 22.349 11.3589 21.5538 10.5755L20.3467 9.38633C19.9614 9.00679 19.7463 8.4874 19.7503 7.9466L19.763 6.25219C19.7713 5.13594 18.8643 4.22892 17.7481 4.23728L16.0537 4.24996C15.5129 4.25401 14.9935 4.03887 14.6139 3.6536L13.4248 2.44651C12.6414 1.65129 11.3586 1.65129 10.5753 2.44651L9.38609 3.6536C9.00655 4.03887 8.48716 4.25401 7.94636 4.24996Z" stroke="white" stroke-width="1.5" stroke-linecap="round" stroke-linejoin="round"/>
</svg>
