<svg width="700" height="550" viewBox="0 0 700 550" fill="none" xmlns="http://www.w3.org/2000/svg">
<path d="M456.855 323.928C456.685 323.928 456.515 323.919 456.345 323.908C456.845 320.969 457.365 318.019 458.055 315.059C458.715 317.908 459.225 320.739 459.705 323.579C458.771 323.8 457.815 323.918 456.855 323.928Z" fill="white"/>
<path d="M460.075 325.749C460.055 327.449 460.055 329.149 460.055 330.849C460.055 332.709 460.065 334.579 460.055 336.439V389.869C459.445 393.439 458.855 396.999 458.055 400.559C457.255 396.999 456.665 393.439 456.055 389.869V331.099C456.055 329.319 456.055 327.529 456.035 325.749C456.105 325.349 456.165 324.959 456.235 324.559C457.439 324.7 458.657 324.677 459.855 324.489C459.935 324.909 460.005 325.329 460.075 325.749Z" fill="white"/>
<path d="M392.205 235.389C392.205 235.389 392.415 235.759 392.825 236.339L392.805 236.359L389.865 239.509C388.665 240.359 387.465 241.209 386.175 241.969C386.855 240.639 387.625 239.389 388.385 238.129L390.615 235.759C391.585 235.559 392.205 235.389 392.205 235.389Z" fill="white"/>
<path d="M409.775 216.789C409.085 218.109 408.315 219.369 407.555 220.619L404.605 223.769L404.065 224.339C403.346 224.098 402.61 223.908 401.865 223.769L403.145 222.399L406.095 219.249C407.295 218.408 408.495 217.569 409.775 216.789Z" fill="white"/>
<path d="M442.462 241.015C442.618 240.668 442.856 240.366 443.157 240.134C443.383 239.964 443.647 239.854 443.926 239.813C444.205 239.775 444.489 239.809 444.751 239.914C445.101 240.054 445.411 240.281 445.649 240.574H445.652L445.665 240.593L445.652 240.611L445.655 240.611C445.5 240.956 445.26 241.256 444.958 241.483C444.733 241.651 444.468 241.759 444.188 241.794C443.908 241.828 443.624 241.79 443.362 241.685C443.012 241.539 442.702 241.309 442.462 241.015Z" fill="white"/>
<path d="M401.728 246.426L379.847 249.13C372.553 250.026 365.256 250.897 357.957 251.744C343.356 253.422 328.766 255.198 314.154 256.779L270.333 261.639L226.487 266.269L226.481 266.27C226.36 266.282 226.238 266.269 226.122 266.232C219.871 264.207 213.613 262.202 207.379 260.122L188.66 253.934C182.417 251.884 176.183 249.802 169.96 247.688L151.29 241.35L170.171 247.031C176.464 248.926 182.747 250.851 189.021 252.806L207.854 258.639C214.137 260.566 220.396 262.568 226.661 264.549L226.297 264.512L270.119 259.659L313.966 255.037C328.577 253.458 343.21 252.073 357.832 250.59C365.142 249.846 372.457 249.137 379.775 248.463L401.728 246.426Z" fill="white"/>
<path d="M151.287 250.668C157.483 252.825 163.64 255.084 169.815 257.295L188.278 264.09L197.506 267.498L206.704 270.983L225.1 277.952L224.631 277.896C233.397 276.712 242.182 275.665 250.96 274.565L277.299 271.314L303.662 268.242C312.457 267.278 321.247 266.275 330.052 265.388C321.307 266.745 312.548 267.987 303.793 269.268L277.506 272.93L251.197 276.415C242.425 277.56 233.659 278.758 224.876 279.818L224.865 279.82C224.71 279.838 224.552 279.818 224.406 279.762L206.069 272.637L196.901 269.075L187.762 265.436L169.492 258.136C163.423 255.648 157.335 253.209 151.287 250.668Z" fill="white"/>
<path d="M224.009 368.413C223.821 359.818 223.761 351.227 223.828 342.639C223.867 334.049 224.023 325.463 224.201 316.877C224.417 308.292 224.658 299.708 225.016 291.126C225.345 282.543 225.804 273.964 226.392 265.388C226.582 273.982 226.643 282.573 226.576 291.162C226.537 299.751 226.381 308.337 226.199 316.923C225.981 325.508 225.74 334.093 225.382 342.675C225.052 351.257 224.594 359.836 224.009 368.413Z" fill="white"/>
<path d="M492.237 172.825C491.007 172.275 489.877 171.522 488.897 170.597C487.925 169.645 487.084 168.568 486.396 167.394C485.722 166.213 485.163 164.97 484.729 163.682C484.292 162.38 483.977 161.04 483.787 159.679C483.779 159.617 483.781 159.554 483.792 159.492L483.813 159.38C484.122 157.982 484.28 156.555 484.286 155.124C484.296 153.698 484.146 152.276 483.838 150.885C483.225 148.111 482.072 145.485 480.445 143.156L480.555 143.272C478.825 141.618 476.898 140.182 474.817 138.998C472.706 137.84 470.413 137.047 468.037 136.655C463.161 136.039 458.217 137.01 453.936 139.424C452.86 140 451.823 140.645 450.83 141.355C450.335 141.709 449.85 142.075 449.382 142.456C449.163 142.637 448.888 142.862 448.741 143.015C448.555 143.215 448.364 143.449 448.181 143.676C446.749 145.582 445.671 147.73 444.998 150.018C444.321 152.293 443.966 154.653 443.942 157.027C443.967 159.409 444.252 161.781 444.794 164.101C444.83 164.267 444.833 164.438 444.803 164.605C444.576 165.855 444.333 167.078 444.056 168.314C443.791 169.573 443.456 170.816 443.053 172.038C442.865 172.609 442.416 173.608 442.516 173.4C442.475 173.328 442.54 173.516 442.892 173.762C443.694 174.25 444.609 174.52 445.547 174.545L445.643 174.542C445.852 174.535 446.061 174.579 446.25 174.671C446.438 174.762 446.602 174.899 446.726 175.068C448.127 177.008 449.609 178.921 451.079 180.816C452.512 182.698 454.067 184.483 455.734 186.161C455.94 186.348 456.145 186.525 456.346 186.678C456.442 186.745 456.543 186.817 456.625 186.867L456.737 186.929C456.77 186.947 456.762 186.934 456.775 186.949C456.814 186.971 456.688 186.928 456.653 186.963C456.623 186.981 456.752 186.942 456.794 186.935C456.925 186.908 457.054 186.873 457.181 186.833C457.444 186.759 457.717 186.663 457.987 186.572C459.082 186.168 460.143 185.678 461.159 185.105C463.24 184.034 465.031 182.476 466.379 180.563L466.411 180.513C466.439 180.47 466.474 180.434 466.515 180.405C466.556 180.377 466.603 180.356 466.652 180.346C466.701 180.335 466.752 180.334 466.801 180.343C466.85 180.352 466.898 180.371 466.94 180.398L466.981 180.429C467.58 180.935 468.137 181.488 468.646 182.084C468.905 182.382 469.136 182.702 469.337 183.041C469.555 183.382 469.705 183.761 469.778 184.158C469.782 184.189 469.775 184.22 469.757 184.246C469.74 184.272 469.713 184.29 469.683 184.297C469.653 184.304 469.621 184.299 469.594 184.284C469.567 184.269 469.546 184.244 469.537 184.214L469.534 184.207C469.25 183.531 468.806 182.934 468.241 182.467C467.697 181.961 467.113 181.499 466.496 181.086L467.098 180.951C465.891 183.187 464.121 185.069 461.964 186.41C460.916 187.111 459.813 187.727 458.665 188.25C458.369 188.375 458.08 188.508 457.763 188.615C457.612 188.673 457.451 188.727 457.28 188.774C457.182 188.808 457.082 188.833 456.98 188.851C456.79 188.881 456.596 188.878 456.407 188.843C455.98 188.744 455.576 188.563 455.218 188.31C454.923 188.113 454.657 187.909 454.401 187.703C452.538 186.053 450.808 184.259 449.227 182.338C447.623 180.481 446.125 178.565 444.629 176.616L445.807 177.138C445.022 177.188 444.236 177.102 443.48 176.886C442.737 176.695 442.031 176.38 441.392 175.953C441.001 175.694 440.66 175.365 440.386 174.984C440.03 174.499 439.848 173.909 439.869 173.308C439.876 173.014 439.936 172.724 440.045 172.451L440.185 172.098L440.261 171.929C440.364 171.712 440.463 171.435 440.557 171.17C441.292 168.863 441.901 166.517 442.381 164.143L442.39 164.647C441.873 162.122 441.638 159.549 441.689 156.973C441.792 154.385 442.299 151.83 443.192 149.399C443.41 148.792 443.689 148.207 443.946 147.617C444.256 147.05 444.516 146.46 444.867 145.918C445.517 144.802 446.279 143.756 447.141 142.796C447.364 142.556 447.58 142.322 447.832 142.085C448.087 141.866 448.354 141.661 448.63 141.471C449.149 141.102 449.677 140.755 450.214 140.423C451.285 139.756 452.404 139.178 453.531 138.624C458.055 136.348 463.102 135.316 468.157 135.633C470.708 135.848 473.206 136.488 475.546 137.527C477.891 138.584 480.063 139.987 481.992 141.689C482.028 141.721 482.062 141.756 482.093 141.793L482.101 141.804C483.089 143.069 483.911 144.454 484.546 145.927C485.189 147.374 485.661 148.891 485.955 150.447C486.277 151.999 486.399 153.587 486.319 155.17C486.249 156.748 486.002 158.313 485.584 159.836L485.61 159.537C485.706 160.786 485.915 162.025 486.234 163.237C486.544 164.466 486.964 165.665 487.489 166.82C488.021 167.972 488.693 169.055 489.49 170.044C490.312 171.034 491.277 171.897 492.352 172.604L492.36 172.61C492.385 172.627 492.403 172.654 492.41 172.684C492.417 172.715 492.412 172.746 492.397 172.773C492.382 172.8 492.357 172.821 492.327 172.83C492.297 172.84 492.265 172.838 492.237 172.825L492.237 172.825Z" fill="white"/>
<path d="M447.019 171.424C446.803 171.424 446.59 171.368 446.403 171.261C446.215 171.154 446.058 171 445.949 170.814L442.523 165.005C442.44 164.865 442.385 164.709 442.362 164.548C442.339 164.386 442.347 164.221 442.388 164.063C442.429 163.905 442.5 163.757 442.598 163.626C442.696 163.496 442.819 163.386 442.959 163.303C443.1 163.22 443.256 163.165 443.417 163.142C443.579 163.12 443.743 163.129 443.902 163.17C444.06 163.211 444.208 163.283 444.338 163.381C444.469 163.479 444.578 163.603 444.661 163.743L448.087 169.552C448.198 169.74 448.257 169.955 448.259 170.174C448.261 170.393 448.204 170.608 448.096 170.798C447.987 170.988 447.831 171.146 447.642 171.256C447.452 171.366 447.237 171.424 447.019 171.424Z" fill="white"/>
<path d="M444.344 166.27C444.212 166.27 444.084 166.227 443.978 166.149C443.871 166.071 443.792 165.961 443.753 165.835C443.713 165.709 443.715 165.574 443.757 165.449C443.8 165.324 443.881 165.216 443.989 165.14C445.79 163.884 461.686 152.895 465.067 153.031C465.149 153.034 465.228 153.054 465.302 153.089C465.376 153.123 465.442 153.172 465.497 153.232C465.552 153.292 465.595 153.363 465.623 153.439C465.65 153.516 465.663 153.598 465.659 153.679C465.649 153.843 465.576 153.996 465.455 154.107C465.334 154.217 465.174 154.276 465.011 154.271C464.995 154.27 464.979 154.27 464.963 154.27C462.621 154.27 451.321 161.539 444.699 166.157C444.595 166.23 444.471 166.27 444.344 166.27Z" fill="white"/>
<path d="M463.252 156.629C463.23 155.703 463.528 154.797 464.096 154.064C464.267 153.865 464.477 153.702 464.712 153.585C464.947 153.468 465.204 153.4 465.466 153.384L465.865 153.377C465.993 153.392 466.112 153.429 466.237 153.456C466.481 153.503 466.716 153.585 466.936 153.7C467.367 153.898 467.775 154.143 468.151 154.432C468.495 154.735 468.857 155.011 469.185 155.342C469.842 156.012 470.385 156.786 470.791 157.632C471.569 159.335 471.789 161.239 471.421 163.075C471.254 163.988 470.9 164.856 470.381 165.625C470.115 166.025 469.749 166.348 469.32 166.562C469.106 166.67 468.861 166.704 468.626 166.659C468.39 166.613 468.176 166.491 468.018 166.31C468.189 166.421 468.39 166.476 468.593 166.467C468.796 166.459 468.992 166.387 469.153 166.261C469.462 166.007 469.704 165.681 469.859 165.311C470.195 164.558 470.399 163.753 470.463 162.931C470.623 161.297 470.348 159.651 469.668 158.157C469.33 157.423 468.88 156.745 468.335 156.148C468.07 155.842 467.752 155.566 467.463 155.27C467.161 155.01 466.84 154.773 466.502 154.562C466.224 154.334 465.878 154.204 465.519 154.194C465.159 154.183 464.806 154.291 464.515 154.502C463.905 155.08 463.467 155.817 463.252 156.629Z" fill="white"/>
<path d="M448.175 179.557C449.126 179.452 450.067 179.274 450.991 179.026C451.415 178.908 451.825 178.748 452.217 178.547C452.638 178.356 453.031 178.086 453.545 177.826C453.462 178.387 453.203 178.908 452.807 179.315C452.411 179.742 451.906 180.053 451.346 180.215C450.797 180.376 450.217 180.403 449.654 180.295C449.099 180.201 448.584 179.944 448.175 179.557Z" fill="white"/>
<path d="M444.344 161.956C444.299 161.105 444.577 160.269 445.122 159.615C445.664 158.94 446.378 158.425 447.189 158.123C447.974 157.834 448.808 157.701 449.644 157.731C450.049 157.761 450.453 157.813 450.852 157.886C451.245 157.987 451.631 158.115 452.006 158.268C451.621 158.367 451.23 158.443 450.836 158.495C450.456 158.565 450.084 158.648 449.716 158.696C449.007 158.835 448.311 159.031 447.634 159.281C446.262 159.766 445.099 160.711 444.344 161.956Z" fill="white"/>
<path d="M449.55 167.26C449.911 167.247 450.254 167.095 450.506 166.834C450.758 166.574 450.898 166.226 450.898 165.864C450.898 165.501 450.758 165.153 450.506 164.893C450.254 164.632 449.911 164.48 449.55 164.467C449.188 164.48 448.845 164.632 448.593 164.893C448.341 165.153 448.201 165.501 448.201 165.864C448.201 166.226 448.341 166.574 448.593 166.834C448.845 167.095 449.188 167.247 449.55 167.26Z" fill="white"/>
<path d="M477.699 202.651C476.279 201.468 474.668 200.536 472.935 199.894C471.225 199.253 469.451 198.799 467.644 198.541C465.826 198.268 463.991 198.117 462.153 198.089L459.366 198.102C458.435 198.144 457.501 198.191 456.55 198.183C457.455 197.919 458.377 197.709 459.302 197.496C460.235 197.354 461.175 197.211 462.121 197.121C464.027 196.968 465.944 197.033 467.835 197.315C469.743 197.594 471.595 198.167 473.327 199.013C475.073 199.829 476.579 201.082 477.699 202.651Z" fill="white"/>
<path d="M408.049 253.568C408.58 251.809 409.284 250.107 410.153 248.489C411 246.851 411.992 245.292 413.116 243.831C414.234 242.344 415.541 241.009 417.003 239.859C418.45 238.678 420.165 237.869 421.996 237.502C420.391 238.304 418.92 239.347 417.632 240.596C416.347 241.829 415.165 243.164 414.098 244.589C411.895 247.409 410.011 250.478 408.049 253.568Z" fill="white"/>
<path d="M452.006 272.651C452.565 272.793 453.146 272.822 453.717 272.738C454.283 272.675 454.84 272.549 455.378 272.361L456.17 272.048C456.431 271.937 456.674 271.783 456.926 271.653C457.426 271.384 457.904 271.076 458.356 270.732C460.172 269.353 461.789 267.729 463.161 265.907C463.826 264.976 464.501 264.052 465.136 263.102C465.732 262.122 466.373 261.172 466.932 260.17L468.596 257.155L470.112 254.056C472.115 249.891 474.075 245.681 476.146 241.539L479.247 235.32C480.322 233.267 481.357 231.196 482.465 229.162C481.609 231.322 480.682 233.446 479.793 235.588L477.006 241.953C475.137 246.194 473.218 250.396 471.231 254.59C469.294 258.851 466.831 262.854 463.901 266.504C462.395 268.317 460.642 269.909 458.693 271.234C458.196 271.553 457.674 271.833 457.133 272.07C456.86 272.184 456.599 272.321 456.319 272.416L455.472 272.674C454.341 273.017 453.133 273.009 452.006 272.651Z" fill="white"/>
<path d="M450.86 244.677C450.785 244.677 450.712 244.663 450.642 244.637L445.087 242.551C444.933 242.493 444.809 242.376 444.742 242.226C444.674 242.077 444.668 241.906 444.726 241.753C444.784 241.599 444.9 241.474 445.05 241.406C445.199 241.338 445.369 241.332 445.523 241.389L451.078 243.475C451.214 243.526 451.328 243.623 451.4 243.75C451.471 243.876 451.496 244.024 451.47 244.167C451.445 244.31 451.369 244.439 451.258 244.532C451.146 244.626 451.005 244.677 450.86 244.677V244.677Z" fill="white"/>
<path d="M405.236 243.131C403.9 243.548 402.485 243.642 401.106 243.404C399.706 243.15 398.366 242.639 397.153 241.896C395.95 241.163 394.842 240.282 393.855 239.276C392.867 238.259 391.989 237.14 391.237 235.938L392.499 236.462C389.936 237.12 387.292 237.405 384.648 237.31C383.295 237.289 381.954 237.061 380.67 236.635C379.984 236.403 379.377 235.984 378.916 235.426C378.676 235.14 378.494 234.81 378.378 234.454C378.293 234.08 378.293 233.691 378.378 233.316C378.564 232.63 378.926 232.005 379.429 231.504C379.875 231.007 380.366 230.551 380.894 230.142C381.916 229.32 382.992 228.567 384.114 227.887C386.323 226.52 388.626 225.309 391.005 224.263C392.203 223.772 393.325 223.199 394.701 222.777C396.042 222.368 397.433 222.151 398.835 222.131C400.22 222.126 401.599 222.311 402.933 222.682C404.253 223.011 405.535 223.474 406.761 224.063C409.148 225.23 411.361 226.725 413.335 228.504C415.301 230.223 417.046 232.18 418.53 234.329C418.547 234.353 418.554 234.384 418.551 234.414C418.547 234.444 418.533 234.471 418.511 234.492C418.488 234.512 418.459 234.523 418.429 234.524C418.399 234.524 418.369 234.514 418.346 234.494L418.34 234.489C414.612 231.112 410.365 228.355 405.762 226.325C404.653 225.853 403.5 225.492 402.319 225.25C401.178 224.942 400.003 224.781 398.821 224.77C397.655 224.733 396.49 224.856 395.357 225.134C394.261 225.399 393.051 225.92 391.856 226.343C389.482 227.248 387.091 228.109 384.773 229.124C383.625 229.636 382.514 230.227 381.449 230.893C380.936 231.233 380.457 231.62 380.016 232.048C379.593 232.439 379.282 232.934 379.112 233.483C379.044 233.738 379.047 234.007 379.12 234.261C379.194 234.514 379.335 234.743 379.529 234.922C379.904 235.346 380.406 235.637 380.961 235.752C382.157 235.996 383.387 236.028 384.595 235.848C387.058 235.464 389.5 234.952 391.911 234.315C392.149 234.26 392.399 234.281 392.626 234.375C392.852 234.469 393.044 234.631 393.173 234.839C393.825 235.904 394.57 236.91 395.398 237.844C396.218 238.8 397.134 239.67 398.131 240.439C399.122 241.208 400.224 241.821 401.4 242.256C402.616 242.694 403.902 242.907 405.194 242.886C405.227 242.886 405.259 242.898 405.284 242.921C405.308 242.944 405.322 242.976 405.322 243.009C405.322 243.036 405.314 243.062 405.299 243.084C405.283 243.106 405.261 243.122 405.236 243.131Z" fill="white"/>
<path d="M426.224 330.416L429.011 337.226C429.024 337.257 429.028 337.292 429.021 337.325C429.015 337.358 428.999 337.389 428.976 337.413C428.953 337.438 428.923 337.455 428.89 337.463C428.857 337.47 428.822 337.468 428.791 337.457L428.78 337.453C427.381 336.907 425.916 336.55 424.422 336.391C422.937 336.266 421.442 336.378 419.992 336.721C417.109 337.533 414.49 339.089 412.398 341.233C410.28 343.365 408.451 345.767 406.959 348.376C405.427 350.964 404.139 353.69 403.111 356.517L403.108 356.523C403.073 356.62 403.01 356.703 402.926 356.763C402.843 356.822 402.743 356.855 402.64 356.856C402.538 356.857 402.437 356.827 402.352 356.77C402.267 356.712 402.201 356.63 402.164 356.534L396.753 342.553L391.432 328.538L392.42 328.299L394.325 347.681C394.94 354.143 395.61 360.6 396.283 367.056C396.288 367.099 396.279 367.142 396.258 367.179C394.795 369.48 392.582 371.204 389.994 372.062C387.459 372.935 384.809 373.43 382.13 373.532C379.464 373.659 376.792 373.597 374.135 373.346C371.475 373.107 368.832 372.711 366.219 372.16C366.156 372.147 366.1 372.115 366.056 372.069C366.012 372.023 365.983 371.964 365.973 371.901L365.972 371.893C364.452 362.09 363.176 352.256 362.143 342.391C361.139 332.523 360.374 322.624 360.117 312.691C360.097 310.206 360.073 307.721 360.109 305.235L360.233 301.505L360.302 299.64L360.455 297.776L360.77 294.048L361.334 290.335C361.531 289.094 361.803 287.867 362.149 286.66C362.307 286.052 362.447 285.438 362.622 284.835L363.285 283.062L363.957 281.293C364.235 280.726 364.542 280.171 364.833 279.61C365.135 279.055 365.407 278.482 365.735 277.942L366.827 276.385C367.561 275.351 368.381 274.381 369.279 273.485C369.729 273.037 370.204 272.616 370.702 272.224C371.171 271.796 371.675 271.409 372.209 271.066L373.806 270.032L375.508 269.186C376.08 268.915 376.667 268.678 377.268 268.478C377.857 268.248 378.461 268.06 379.076 267.915C381.523 267.245 384.067 267.002 386.596 267.197L386.189 267.429C386.719 266.288 387.375 265.211 388.144 264.216C388.932 263.241 389.824 262.355 390.803 261.572C392.788 260.063 395.022 258.915 397.404 258.178C399.764 257.451 402.197 256.986 404.659 256.792C407.11 256.578 409.575 256.585 412.024 256.815C412.04 256.816 412.055 256.824 412.066 256.837C412.076 256.85 412.081 256.866 412.08 256.882C412.077 256.899 412.069 256.914 412.056 256.924C412.043 256.934 412.027 256.939 412.011 256.938C409.571 256.781 407.122 256.845 404.693 257.129C402.271 257.39 399.885 257.918 397.578 258.703C395.278 259.457 393.127 260.605 391.222 262.097C390.298 262.86 389.458 263.721 388.719 264.664C388.003 265.621 387.396 266.655 386.908 267.746C386.875 267.819 386.821 267.88 386.752 267.922C386.684 267.963 386.604 267.983 386.524 267.979L386.502 267.978C381.621 267.703 376.791 269.085 372.794 271.899C368.894 274.824 365.982 278.871 364.448 283.499L363.812 285.208C363.645 285.793 363.512 286.39 363.36 286.98C363.026 288.155 362.764 289.349 362.577 290.556L362.034 294.192L361.734 297.871L361.587 299.711L361.524 301.559L361.41 305.257C361.377 307.725 361.42 310.195 361.429 312.665C361.611 322.548 362.322 332.428 363.234 342.284C364.128 352.143 365.255 361.98 366.615 371.794L366.369 371.528C368.947 372.113 371.557 372.546 374.186 372.825C376.815 373.123 379.463 373.212 382.106 373.093C384.745 373.008 387.357 372.537 389.858 371.693C392.37 370.889 394.513 369.217 395.904 366.977L395.879 367.1C395.164 360.648 394.445 354.196 393.672 347.751L391.401 328.409C391.387 328.285 391.418 328.161 391.489 328.058C391.56 327.956 391.666 327.883 391.786 327.853C391.907 327.823 392.035 327.838 392.146 327.895C392.256 327.953 392.342 328.048 392.387 328.164L392.389 328.171L397.795 342.154L403.104 356.174L402.158 356.192C403.23 353.308 404.567 350.53 406.153 347.895C407.719 345.239 409.638 342.807 411.855 340.665C414.075 338.476 416.832 336.908 419.849 336.121C421.368 335.79 422.931 335.715 424.475 335.899C426.003 336.109 427.496 336.523 428.915 337.127L428.683 337.354L426.109 330.462C426.103 330.447 426.104 330.43 426.11 330.415C426.117 330.4 426.129 330.388 426.144 330.382C426.159 330.376 426.176 330.377 426.191 330.383C426.206 330.389 426.218 330.401 426.224 330.416H426.224Z" fill="white"/>
<path d="M391.911 328.354L393.016 338.581L386.177 299.795L393.648 332.884L391.911 328.354Z" fill="white"/>
<path d="M442.57 273.731C428.771 273.731 388.392 268.456 386.468 268.203C386.387 268.193 386.309 268.167 386.238 268.126C386.168 268.085 386.106 268.031 386.056 267.967C386.006 267.902 385.969 267.828 385.948 267.749C385.927 267.67 385.921 267.588 385.932 267.507C385.943 267.426 385.969 267.348 386.01 267.278C386.051 267.207 386.105 267.145 386.17 267.095C386.235 267.046 386.309 267.009 386.387 266.988C386.466 266.967 386.549 266.962 386.63 266.973C387.158 267.041 439.582 273.886 446.11 272.25C446.189 272.23 446.271 272.226 446.352 272.237C446.433 272.249 446.51 272.276 446.58 272.318C446.651 272.36 446.712 272.415 446.761 272.481C446.809 272.546 446.845 272.621 446.865 272.7C446.885 272.779 446.889 272.861 446.877 272.942C446.865 273.023 446.837 273.1 446.795 273.17C446.753 273.24 446.697 273.301 446.632 273.35C446.566 273.399 446.492 273.434 446.412 273.453C445.145 273.682 443.857 273.775 442.57 273.731Z" fill="white"/>
<path d="M536.675 205.629C536.675 205.629 491.995 195.208 480.975 248.528C469.955 301.839 467.145 297.968 467.145 297.968C447.035 327.119 407.815 309.238 398.915 304.649C397.904 304.101 396.751 303.873 395.608 303.997C394.465 304.12 393.386 304.588 392.515 305.339C390.125 307.528 390.495 311.069 390.495 311.069L390.665 315.079C390.696 315.725 390.865 316.357 391.162 316.931C391.459 317.506 391.876 318.01 392.385 318.408C406.885 329.928 432.695 332.319 456.055 331.099C457.395 331.028 458.735 330.948 460.055 330.849C480.245 329.439 497.955 325.478 503.915 322.698C517.315 316.439 521.185 319.119 542.035 264.008C562.895 208.908 536.675 205.629 536.675 205.629ZM545.565 220.318L545.555 220.308C539.696 217.116 532.951 215.935 526.355 216.948C519.875 218.038 514.205 221.829 509.865 226.698C507.677 229.161 505.728 231.826 504.045 234.658C502.324 237.5 500.794 240.453 499.465 243.498C496.845 249.649 494.656 255.974 492.915 262.428C492.065 265.669 491.175 268.919 490.415 272.198C490.015 273.839 489.545 275.458 489.125 277.089C488.705 278.718 488.255 280.339 487.795 281.958C486.097 288.501 483.989 294.93 481.485 301.208C480.855 302.778 480.095 304.299 479.365 305.829C478.545 307.329 477.795 308.849 476.865 310.279C475.11 313.229 473.012 315.961 470.615 318.419C468.211 320.931 465.247 322.84 461.965 323.989C461.277 324.211 460.571 324.379 459.855 324.489C458.658 324.677 457.44 324.7 456.235 324.559C454.72 324.373 453.262 323.868 451.955 323.079C451.944 323.072 451.934 323.062 451.926 323.052C451.918 323.041 451.913 323.028 451.91 323.015C451.907 323.002 451.907 322.988 451.91 322.975C451.912 322.962 451.918 322.95 451.925 322.939C451.937 322.919 451.956 322.904 451.978 322.896C452 322.889 452.024 322.89 452.045 322.899L452.055 322.908C453.403 323.528 454.862 323.868 456.345 323.908C456.515 323.919 456.685 323.928 456.856 323.928C457.815 323.918 458.771 323.8 459.705 323.579C460.357 323.425 460.998 323.231 461.626 322.998C464.643 321.727 467.336 319.792 469.505 317.339C471.727 314.895 473.685 312.223 475.345 309.369C476.225 307.958 476.975 306.468 477.775 305.018C478.485 303.508 479.305 302.058 479.965 300.528C482.82 294.463 485.226 288.196 487.165 281.778C488.165 278.568 488.935 275.298 489.725 272.038C490.485 268.758 491.115 265.468 491.856 262.169C493.231 255.536 495.199 249.04 497.735 242.758C500.239 236.374 503.806 230.46 508.285 225.268C510.607 222.687 513.32 220.487 516.325 218.748C519.349 217.018 522.675 215.881 526.126 215.399C532.994 214.621 539.916 216.3 545.665 220.138C545.677 220.145 545.686 220.155 545.694 220.166C545.702 220.177 545.707 220.189 545.71 220.202C545.713 220.215 545.713 220.229 545.71 220.242C545.708 220.255 545.703 220.267 545.695 220.278C545.681 220.299 545.661 220.314 545.637 220.321C545.614 220.328 545.588 220.327 545.565 220.318H545.565Z" fill="white"/>
<path d="M501.653 399.896C501.632 400.923 501.307 401.921 500.719 402.763C500.142 403.593 499.444 404.332 498.649 404.957C497.069 406.198 495.345 407.245 493.514 408.075C489.86 409.74 486.049 411.039 482.138 411.95C474.324 413.804 466.303 414.637 458.276 414.431C450.276 414.222 442.312 413.268 434.49 411.581C430.565 410.788 426.719 409.644 422.999 408.164C421.112 407.41 419.324 406.428 417.675 405.241C416.821 404.622 416.069 403.873 415.447 403.022C414.777 402.113 414.393 401.025 414.343 399.896C414.344 398.753 414.682 397.635 415.317 396.683C415.911 395.784 416.641 394.982 417.48 394.306C419.09 393.004 420.872 391.929 422.774 391.112C426.488 389.489 430.363 388.265 434.336 387.462C442.209 385.821 450.234 385.019 458.276 385.071C466.312 385.034 474.325 385.952 482.145 387.805C486.056 388.729 489.866 390.033 493.522 391.699C495.354 392.531 497.078 393.58 498.658 394.825C499.453 395.451 500.15 396.193 500.725 397.025C501.312 397.869 501.634 398.868 501.653 399.896ZM501.405 399.896C501.369 397.916 499.963 396.271 498.429 395.112C496.839 393.949 495.096 393.013 493.248 392.332C489.549 390.965 485.718 389.985 481.817 389.405C474.026 388.232 466.155 387.668 458.276 387.719C450.407 387.683 442.551 388.362 434.805 389.749C430.964 390.449 427.199 391.51 423.558 392.919C421.781 393.617 420.095 394.527 418.536 395.631C417.047 396.723 415.764 398.2 415.702 399.896C415.65 401.598 416.88 403.213 418.341 404.406C419.859 405.627 421.54 406.632 423.334 407.391C426.968 408.943 430.764 410.084 434.651 410.793C438.541 411.523 442.476 411.989 446.429 412.187C450.376 412.429 454.331 412.452 458.276 412.364C466.16 412.246 474.027 411.597 481.825 410.424C485.725 409.833 489.555 408.846 493.256 407.479C495.105 406.796 496.849 405.858 498.437 404.691C499.971 403.529 501.375 401.876 501.405 399.896Z" fill="white"/>
<path d="M393.826 369.714C394.479 370.908 394.962 372.186 395.26 373.513C395.605 374.824 395.869 376.151 396.096 377.483C396.539 380.148 396.9 382.826 397.151 385.512C397.268 386.87 397.4 388.171 397.465 389.574C397.498 390.992 397.257 392.403 396.755 393.729C396.502 394.397 396.17 395.033 395.766 395.623C395.358 396.194 394.911 396.735 394.429 397.245C393.469 398.261 392.36 399.127 391.141 399.812C388.715 401.138 386.034 401.929 383.277 402.131C381.913 402.25 380.54 402.217 379.184 402.034C378.502 401.951 377.828 401.811 377.169 401.616C376.515 401.414 375.887 401.185 375.25 400.955C370.154 399.103 365.52 396.286 360.508 394.363C355.529 392.379 350.391 390.707 345.457 388.459C342.938 387.379 340.546 386.027 338.322 384.425C337.2 383.585 336.187 382.608 335.309 381.516C334.805 380.901 334.48 380.16 334.368 379.373C334.311 378.968 334.32 378.557 334.396 378.156C334.484 377.768 334.622 377.392 334.806 377.039C335.571 375.763 336.702 374.746 338.051 374.119C339.319 373.488 340.683 373.073 342.088 372.889C342.783 372.797 343.484 372.752 344.185 372.754C344.881 372.782 345.601 372.835 346.237 372.887C347.548 372.997 348.886 372.997 350.22 372.978C355.57 372.871 360.935 372.353 366.284 371.782C366.301 371.78 366.317 371.785 366.33 371.795C366.343 371.805 366.351 371.82 366.353 371.836C366.355 371.852 366.351 371.868 366.342 371.88C366.332 371.893 366.319 371.902 366.303 371.905C361.001 372.921 355.64 373.604 350.252 373.948C348.897 374.005 347.54 374.045 346.165 373.968C345.46 373.93 344.835 373.904 344.187 373.893C343.543 373.91 342.9 373.97 342.264 374.072C341.001 374.275 339.777 374.672 338.636 375.249C337.535 375.771 336.611 376.606 335.981 377.649C335.723 378.134 335.621 378.687 335.687 379.233C335.753 379.779 335.985 380.291 336.351 380.701C337.166 381.704 338.093 382.611 339.114 383.402C341.239 384.98 343.531 386.32 345.947 387.399C350.785 389.684 355.845 391.517 360.775 393.738C363.245 394.829 365.644 396.073 368.044 397.291C370.406 398.566 372.864 399.655 375.395 400.55C376.631 401.039 377.924 401.368 379.243 401.528C380.563 401.646 381.892 401.618 383.206 401.443C385.826 401.133 388.351 400.274 390.616 398.921C391.727 398.254 392.74 397.435 393.625 396.487C394.523 395.577 395.242 394.505 395.742 393.327C396.215 392.137 396.453 390.866 396.444 389.585C396.407 388.299 396.295 386.918 396.202 385.593C395.994 382.917 395.797 380.238 395.452 377.579C395.236 374.911 394.653 372.286 393.719 369.778L393.717 369.772C393.71 369.757 393.709 369.741 393.715 369.726C393.72 369.711 393.731 369.699 393.745 369.692C393.758 369.684 393.775 369.683 393.79 369.687C393.805 369.691 393.818 369.701 393.826 369.714L393.826 369.714Z" fill="white"/>
<path d="M371.18 372.725C371.302 374.159 371.512 375.584 371.808 376.993C372.078 378.381 372.485 379.74 373.025 381.047C373.502 382.302 374.326 383.397 375.401 384.202C375.921 384.551 376.519 384.767 377.142 384.833C377.788 384.882 378.437 384.814 379.059 384.633C380.377 384.242 381.622 383.635 382.742 382.837C383.904 382.076 384.942 381.141 385.82 380.064C387.615 377.85 388.643 375.114 388.749 372.266C389.12 375.233 388.349 378.23 386.591 380.649C384.796 383.098 382.27 384.913 379.376 385.832C378.606 386.043 377.804 386.112 377.009 386.037C376.192 385.945 375.41 385.647 374.739 385.17C373.508 384.207 372.598 382.894 372.129 381.403C371.225 378.605 370.902 375.652 371.18 372.725Z" fill="white"/>
<path d="M349.762 380.556C349.423 379.771 349.308 378.907 349.429 378.06C349.533 377.188 349.845 376.354 350.341 375.629C350.834 374.905 351.493 374.309 352.264 373.891C352.635 373.684 353.028 373.518 353.436 373.397C353.843 373.294 354.259 373.229 354.678 373.201C354.356 373.489 354.017 373.697 353.707 373.943C353.411 374.207 353.084 374.409 352.82 374.683C352.685 374.816 352.547 374.94 352.406 375.06L352.036 375.47C351.788 375.735 351.564 376.021 351.367 376.326C350.539 377.606 349.991 379.048 349.762 380.556Z" fill="white"/>
<path d="M356.464 380.556C356.119 379.785 356.011 378.928 356.154 378.095C356.279 377.257 356.562 376.451 356.989 375.72C357.42 375.004 357.965 374.363 358.602 373.823C358.92 373.561 359.254 373.321 359.603 373.104C359.964 372.906 360.338 372.734 360.724 372.59C360.502 372.927 360.262 373.251 360.005 373.563L359.306 374.489C358.858 375.086 358.442 375.707 358.059 376.348C357.279 377.643 356.738 379.069 356.464 380.556Z" fill="white"/>
<path d="M368.143 403.915C365.819 403.159 363.578 402.169 361.453 400.961C357.829 398.888 351.499 395.326 349.712 394.631C344.077 392.422 337.389 390.139 334.979 386.44C330.873 380.135 334.978 376.879 334.978 376.879C336.277 383.815 344.4 387.706 356.017 392.174C367.634 396.642 369.074 398.752 377.017 401.333C381.237 402.711 390.806 401.892 395.311 395.301C395.633 394.833 395.907 394.334 396.131 393.812L396.956 387.335C403.053 411.515 377.079 406.807 368.143 403.915Z" fill="white"/>
<path d="M404.691 385.346C403.45 384.941 402.368 384.155 401.598 383.102C400.827 382.048 400.408 380.778 400.398 379.473C400.287 377.602 400.776 375.745 401.795 374.171C402.813 372.598 404.307 371.391 406.06 370.727C412.35 368.078 415.329 360.386 416.45 356.578C417.388 353.341 418.84 350.276 420.749 347.499C423.881 342.985 428.795 338.47 434.791 341.695C436.87 342.879 438.447 344.778 439.231 347.039C440.732 351.067 443.139 355.044 436.624 363.905C435.567 365.322 434.425 366.674 433.205 367.953C431.316 369.992 429.837 372.374 428.847 374.971C427.942 377.503 419.081 389.923 404.691 385.346Z" fill="white"/>
<path d="M405.879 349.304C406.507 352.517 406.503 355.821 405.866 359.032C405.265 362.265 404.149 365.38 402.561 368.259C401.768 369.676 400.897 371.047 399.951 372.367C399.531 373.009 399.199 373.704 398.963 374.433C398.756 375.176 398.671 375.946 398.711 376.716C398.708 378.3 398.991 379.872 399.546 381.356C399.79 382.114 400.227 382.795 400.815 383.332C401.402 383.869 402.12 384.243 402.896 384.418C402.074 384.351 401.294 384.026 400.668 383.489C400.05 382.936 399.552 382.263 399.202 381.511C398.51 380.011 398.112 378.392 398.03 376.742C397.956 375.899 398.004 375.05 398.173 374.221C398.367 373.394 398.676 372.598 399.092 371.857C399.943 370.409 400.785 369.135 401.501 367.696C402.975 364.884 404.092 361.9 404.829 358.812C405.603 355.704 405.956 352.506 405.879 349.304Z" fill="white"/>
<path d="M426.191 336.436C426.781 336.474 427.36 336.618 427.901 336.859C428.434 337.084 428.938 337.373 429.402 337.719C429.874 338.071 430.292 338.49 430.643 338.964C431.022 339.443 431.256 340.022 431.316 340.63C430.828 340.258 430.39 339.963 429.956 339.647L428.655 338.71C427.744 338.055 426.917 337.291 426.191 336.436Z" fill="white"/>
<path d="M410.165 255.249C410.167 255.268 410.165 255.287 410.16 255.305C410.155 255.324 410.146 255.341 410.134 255.356C410.121 255.371 410.107 255.383 410.09 255.392C410.073 255.401 410.054 255.407 410.035 255.409L370.125 261.009L331.125 266.309L331.385 309.209L331.505 331.119L331.565 353.029C331.567 353.392 331.437 353.744 331.2 354.02C330.963 354.295 330.635 354.476 330.275 354.529H330.265L277.255 362.289L224.215 369.859H224.205C223.918 369.9 223.624 369.851 223.365 369.719L186.895 351.529L150.475 333.239H150.465C150.295 333.153 150.153 333.022 150.054 332.859C149.955 332.696 149.903 332.509 149.905 332.319L150.465 286.839C150.675 271.669 150.695 256.509 150.825 241.349C150.826 241.234 150.87 241.123 150.947 241.038C151.025 240.953 151.131 240.9 151.245 240.889L180.915 237.749L182.145 237.619L182.415 237.589C182.255 237.969 182.095 238.349 181.945 238.739L181.075 238.829L151.755 241.769C151.765 256.799 151.665 271.819 151.755 286.839L151.955 331.689L188.046 349.209L224.235 366.909L276.806 359.159L328.535 351.719L328.595 331.119L328.725 309.209L328.995 265.389V265.379C328.996 265.123 329.089 264.877 329.259 264.685C329.428 264.494 329.662 264.37 329.915 264.339L369.945 259.649L410.005 255.119C410.024 255.117 410.044 255.119 410.062 255.124C410.08 255.13 410.097 255.139 410.112 255.151C410.127 255.163 410.139 255.178 410.148 255.195C410.158 255.211 410.163 255.23 410.165 255.249Z" fill="white"/>
<path d="M183.525 237.469C183.665 237.829 183.815 238.189 183.955 238.539C183.415 238.589 182.875 238.649 182.335 238.699C182.545 238.309 182.755 237.919 182.955 237.529L183.525 237.469Z" fill="white"/>
<path d="M184.285 237.389C185.175 237.299 186.065 237.209 186.955 237.109C186.795 237.499 186.635 237.899 186.475 238.289C185.915 238.339 185.355 238.399 184.795 238.459C184.625 238.099 184.455 237.749 184.285 237.389Z" fill="white"/>
<path d="M187.875 237.489L188.135 238.119C187.955 238.139 187.775 238.159 187.605 238.179C187.695 237.949 187.785 237.719 187.875 237.489Z" fill="white"/>
<path d="M191.305 236.639H191.405L190.955 237.849C190.335 237.909 189.715 237.969 189.105 238.029L188.695 236.919C189.565 236.829 190.435 236.729 191.305 236.639Z" fill="white"/>
<path d="M191.945 237.139L192.155 237.729C192.015 237.749 191.865 237.759 191.725 237.769L191.945 237.139Z" fill="white"/>
<path d="M195.725 236.469L195.315 237.429L192.795 237.669L192.445 236.619C193.535 236.589 194.635 236.539 195.725 236.469Z" fill="white"/>
<path d="M196.025 236.569L196.335 237.329C196.125 237.349 195.915 237.369 195.705 237.389L196.025 236.569Z" fill="white"/>
<path d="M449.205 227.339C449.196 227.375 449.174 227.407 449.142 227.428C449.111 227.448 449.072 227.456 449.035 227.449L423.695 222.099C415.295 220.319 406.905 218.515 398.525 216.689L367.755 220.138L336.865 223.449L305.965 226.749L275.055 229.879C264.745 230.928 254.435 231.888 244.125 232.859L213.185 235.749C208.425 236.189 203.668 236.635 198.915 237.089C198.145 237.158 197.375 237.229 196.605 237.309L196.285 236.429C197.205 236.359 198.125 236.279 199.055 236.159C198.505 236.089 197.945 236.029 197.395 235.969C197.975 235.909 198.545 235.839 199.115 235.779C203.755 235.259 208.392 234.735 213.025 234.209L243.905 230.739C254.195 229.569 264.485 228.408 274.785 227.349L305.695 224.099L336.615 221.029L367.535 217.969L398.465 215.059H398.485C398.566 215.055 398.646 215.062 398.725 215.079C407.135 217.039 415.535 219.035 423.925 221.069L449.095 227.158C449.114 227.162 449.133 227.17 449.149 227.182C449.165 227.193 449.179 227.208 449.189 227.225C449.199 227.242 449.206 227.26 449.209 227.28C449.212 227.3 449.21 227.32 449.205 227.339Z" fill="white"/>
<path d="M239.055 323.579V358.639L317.695 348.509V314.549L239.055 323.579ZM283.735 338.559C277.935 338.559 277.945 329.559 283.735 329.559C289.535 329.559 289.525 338.559 283.735 338.559V338.559Z" fill="white"/>
<path d="M239.055 282.228V317.288L317.695 307.158V273.198L239.055 282.228ZM283.735 297.208C277.935 297.208 277.945 288.208 283.735 288.208C289.535 288.208 289.525 297.208 283.735 297.208V297.208Z" fill="white"/>
<path d="M413.084 229.398L413.097 229.397C414.747 228.974 416.41 228.628 418.067 228.242C419.728 227.883 421.39 227.531 423.057 227.203C423.145 227.185 423.237 227.195 423.319 227.232L423.342 227.242C426.836 228.781 430.296 230.39 433.741 232.031C437.182 233.68 440.608 235.361 444.001 237.111L444.028 237.125C444.129 237.177 444.205 237.267 444.24 237.375C444.274 237.483 444.264 237.601 444.212 237.701C444.179 237.765 444.13 237.82 444.071 237.86C444.011 237.9 443.942 237.925 443.871 237.931C442.447 238.06 441.025 238.207 439.597 238.307C438.17 238.411 436.745 238.536 435.313 238.607C436.716 238.309 438.125 238.066 439.531 237.802C440.937 237.534 442.35 237.312 443.759 237.073L443.629 237.893C440.13 236.367 436.664 234.771 433.212 233.144C429.765 231.507 426.332 229.84 422.933 228.103L423.218 228.142C421.538 228.389 419.853 228.611 418.168 228.827C416.477 229.017 414.794 229.245 413.097 229.398H413.097L413.084 229.398Z" fill="white"/>
<path d="M405.849 242.455L405.836 242.455L397.5 243.791C394.722 244.244 391.935 244.622 389.153 245.041C386.368 245.442 383.588 245.879 380.8 246.25L372.438 247.385C372.348 247.396 372.258 247.387 372.173 247.358C368.812 246.201 365.437 245.084 362.092 243.881L352.04 240.326C351.972 240.303 351.91 240.266 351.856 240.218C351.803 240.171 351.759 240.113 351.728 240.049C351.697 239.984 351.678 239.914 351.674 239.843C351.67 239.771 351.68 239.7 351.704 239.632C351.736 239.54 351.792 239.458 351.867 239.395C351.941 239.332 352.031 239.29 352.127 239.273C356.628 238.505 361.149 237.851 365.662 237.145C370.174 236.442 374.698 235.807 379.226 235.194C374.752 236.119 370.273 237.023 365.784 237.86C361.293 238.693 356.812 239.578 352.311 240.348L352.398 239.296L362.489 242.74C365.859 243.871 369.199 245.088 372.553 246.264L372.288 246.237L380.662 245.192C383.453 244.836 386.252 244.546 389.046 244.22C391.842 243.912 394.634 243.564 397.435 243.29C400.235 243.005 403.032 242.701 405.836 242.454H405.836L405.849 242.455Z" fill="white"/>
<path d="M373.368 224.709C370.359 225.583 367.333 226.38 364.314 227.211C363.557 227.411 362.807 227.638 362.044 227.808L359.749 228.288L355.166 229.279L352.875 229.775C352.042 230.001 351.173 230.053 350.319 229.928C349.414 229.789 348.572 229.38 347.904 228.754C347.566 228.413 347.306 228.003 347.143 227.551C346.979 227.1 346.915 226.618 346.956 226.14C347.147 224.421 347.931 222.822 349.173 221.618C349.768 221.025 350.442 220.518 351.175 220.109C351.536 219.908 351.908 219.728 352.289 219.568C352.638 219.42 352.982 219.261 353.322 219.091C356.067 217.82 358.379 215.771 359.97 213.198C360.718 211.908 361.213 210.487 361.43 209.012C361.626 207.563 361.628 205.954 361.706 204.402L362.471 185.662L362.485 185.82C362.41 185.613 362.304 185.419 362.172 185.243C362.019 185.033 361.845 184.84 361.652 184.666C361.229 184.318 360.775 184.011 360.294 183.749C359.266 183.207 358.166 182.814 357.027 182.583C355.852 182.354 354.662 182.21 353.466 182.152C352.262 182.085 351.052 182.092 349.836 182.113C351.038 181.948 352.244 181.766 353.466 181.711C354.696 181.642 355.928 181.66 357.154 181.767C358.417 181.888 359.655 182.191 360.832 182.664C361.446 182.923 362.01 183.289 362.496 183.746C363.051 184.23 363.467 184.855 363.697 185.554C363.709 185.593 363.715 185.633 363.713 185.673L363.711 185.713L362.946 204.454C362.864 206.023 362.875 207.549 362.657 209.201C362.417 210.828 361.87 212.395 361.045 213.819C359.332 216.604 356.837 218.824 353.872 220.204C353.512 220.383 353.147 220.552 352.777 220.71C352.437 220.851 352.105 221.012 351.782 221.191C351.149 221.544 350.566 221.983 350.052 222.494C349.027 223.485 348.372 224.797 348.195 226.212C348.163 226.514 348.199 226.82 348.299 227.107C348.4 227.394 348.563 227.655 348.777 227.871C349.263 228.315 349.871 228.605 350.522 228.704C351.221 228.803 351.933 228.755 352.612 228.562L354.904 228.066L359.487 227.075L361.775 226.564C362.54 226.404 363.318 226.301 364.089 226.17C367.181 225.68 370.266 225.156 373.368 224.709Z" fill="white"/>
<path d="M354.385 168.718C355.715 170.228 356.945 171.828 358.575 173.378L341.145 194.968C340.845 174.418 326.555 173.378 326.555 173.378L350.045 164.438C350.861 165.087 351.639 165.781 352.375 166.518C353.075 167.228 353.725 167.968 354.385 168.718Z" fill="white"/>
<path d="M366.025 173.378H358.575C358.471 172.271 358.169 171.19 357.685 170.188C357.221 169.183 356.619 168.247 355.895 167.408C355.163 166.551 354.291 165.824 353.315 165.258C352.326 164.678 351.191 164.393 350.045 164.438L353.365 158.178L366.025 173.378Z" fill="white"/>
<path d="M341.148 194.971C338.922 194.285 336.846 193.184 335.029 191.728C333.169 190.289 331.548 188.567 330.225 186.624C329.881 186.146 329.57 185.645 329.295 185.125C329.018 184.605 328.697 184.11 328.46 183.571C327.967 182.505 327.563 181.399 327.252 180.266C326.608 178.03 326.37 175.695 326.552 173.375C327.143 175.543 327.869 177.672 328.725 179.75C329.565 181.772 330.621 183.698 331.874 185.494C333.102 187.314 334.503 189.011 336.058 190.562C337.645 192.153 339.346 193.627 341.148 194.971Z" fill="white"/>
<path d="M335.042 188.045C342.229 188.045 342.241 176.875 335.042 176.875C327.854 176.875 327.842 188.045 335.042 188.045Z" fill="white"/>
<path d="M282.877 233.629L301.253 230.446C307.513 229.381 313.851 228.287 320.175 227.469L320.195 227.466C320.288 227.454 320.384 227.472 320.467 227.517L327.819 231.48C330.263 232.815 332.732 234.101 335.198 235.392C337.656 236.7 340.152 237.933 342.633 239.196C345.112 240.463 347.621 241.669 350.114 242.909C350.177 242.94 350.229 242.99 350.262 243.053C350.295 243.115 350.307 243.186 350.298 243.256C350.288 243.326 350.256 243.391 350.208 243.442C350.159 243.493 350.095 243.527 350.026 243.54L350.013 243.542C343.741 244.676 337.464 245.783 331.176 246.824C324.891 247.884 318.607 248.947 312.307 249.91L312.301 249.911C312.163 249.932 312.022 249.908 311.899 249.842C306.934 247.177 302.016 244.393 297.149 241.662C292.317 238.906 287.561 236.211 282.877 233.629ZM283 233.65C288.071 236.279 293.07 238.794 297.993 241.249C302.882 243.728 307.719 246.154 312.51 248.699L312.102 248.631C318.387 247.574 324.688 246.617 330.989 245.655C337.286 244.676 343.594 243.762 349.907 242.876L349.806 243.509C347.346 242.204 344.904 240.867 342.431 239.589C339.959 238.308 337.503 236.997 335.009 235.76C332.523 234.507 330.04 233.249 327.532 232.039L320.028 228.371L320.319 228.418C314.206 229.498 308.109 230.304 301.932 231.137L292.568 232.361L283 233.65Z" fill="white"/>
<path d="M304.832 237.55C306.181 237.25 307.543 237.018 308.916 236.856C310.215 237.063 311.521 237.229 312.824 237.417L320.643 238.512L328.462 239.609L332.372 240.156C333.622 240.713 334.875 241.258 336.109 241.934C334.737 242.244 333.383 242.424 332.027 242.615L328.117 242.067L320.298 240.971L312.479 239.875C311.175 239.698 309.874 239.497 308.568 239.339C307.293 238.806 306.046 238.209 304.832 237.55Z" fill="white"/>
<path d="M203.245 240.569L221.622 237.386C227.881 236.321 234.219 235.227 240.543 234.409L240.563 234.406C240.657 234.394 240.752 234.411 240.835 234.456L248.187 238.42C250.631 239.755 253.1 241.041 255.566 242.332C258.024 243.64 260.52 244.873 263.001 246.136C265.48 247.403 267.99 248.609 270.482 249.849C270.546 249.88 270.597 249.93 270.63 249.993C270.663 250.055 270.675 250.126 270.666 250.196C270.656 250.266 270.625 250.331 270.576 250.382C270.527 250.433 270.464 250.467 270.394 250.48L270.382 250.482C264.109 251.616 257.832 252.723 251.544 253.764C245.26 254.823 238.975 255.887 232.675 256.85L232.669 256.851C232.531 256.872 232.39 256.848 232.267 256.782C227.302 254.117 222.385 251.333 217.518 248.602C212.685 245.846 207.929 243.151 203.245 240.569ZM203.368 240.59C208.439 243.219 213.438 245.734 218.361 248.189C223.25 250.668 228.087 253.094 232.878 255.639L232.47 255.571C238.755 254.514 245.056 253.557 251.356 252.595C257.654 251.616 263.962 250.702 270.275 249.816L270.174 250.449C267.715 249.144 265.272 247.807 262.799 246.529C260.327 245.248 257.872 243.936 255.377 242.7C252.892 241.447 250.408 240.189 247.9 238.979L240.396 235.31L240.688 235.358C234.575 236.438 228.477 237.244 222.3 238.077L212.936 239.301L203.368 240.59Z" fill="white"/>
<path d="M248.698 238.98C250.951 238.52 253.208 238.086 255.469 237.678C257.732 237.284 259.989 236.851 262.257 236.49C266.791 235.757 271.318 234.974 275.874 234.38L275.898 234.377C275.996 234.364 276.096 234.382 276.184 234.43L283.512 238.441C285.954 239.78 288.423 241.065 290.895 242.345C293.38 243.6 295.865 244.856 298.375 246.062L305.888 249.712C305.981 249.757 306.057 249.831 306.105 249.921C306.154 250.012 306.172 250.116 306.158 250.218C306.144 250.32 306.098 250.415 306.027 250.489C305.955 250.564 305.862 250.614 305.761 250.632L305.742 250.635L296.321 252.265C293.18 252.804 290.038 253.335 286.891 253.834C283.742 254.324 280.594 254.815 277.438 255.258C274.282 255.706 271.131 256.178 267.969 256.583L267.947 256.586C267.871 256.595 267.795 256.58 267.729 256.543C265.043 255.023 262.37 253.477 259.712 251.905C259.698 251.897 259.688 251.884 259.684 251.868C259.68 251.853 259.682 251.836 259.689 251.822C259.697 251.808 259.709 251.797 259.724 251.792C259.74 251.787 259.756 251.788 259.771 251.795C262.559 253.123 265.331 254.481 268.087 255.87L267.848 255.83C270.978 255.225 274.119 254.688 277.256 254.127C280.393 253.56 283.537 253.042 286.681 252.522C289.826 252.012 292.977 251.534 296.128 251.062L305.586 249.664L305.439 250.587L298.096 246.605C295.654 245.266 293.186 243.977 290.719 242.688C288.239 241.424 285.756 240.165 283.246 238.96L275.718 235.337L276.027 235.388C271.502 236.179 266.948 236.783 262.401 237.435C260.129 237.767 257.845 238.027 255.568 238.327C253.289 238.614 251.005 238.873 248.717 239.103C248.701 239.105 248.685 239.1 248.673 239.09C248.66 239.08 248.652 239.066 248.649 239.05C248.647 239.035 248.65 239.019 248.66 239.006C248.669 238.992 248.682 238.983 248.698 238.98L248.698 238.98Z" fill="white"/>
<path d="M402.085 178.929C401.565 180.399 400.975 181.839 400.385 183.279L398.035 187.239L393.525 194.859H391.785L392.055 194.409L396.745 186.479L399.095 182.509C400.075 181.309 401.045 180.099 402.085 178.929Z" fill="white"/>
<path d="M391.105 183.908L390.545 188.808L389.855 194.858H388.345L389.055 188.638L389.605 183.738C390.015 182.128 390.415 180.518 390.915 178.928C391.035 180.598 391.075 182.248 391.105 183.908Z" fill="white"/>
<path d="M384.915 194.859H385.865L385.335 191.149L384.905 188.169L384.245 183.489C383.795 181.969 383.355 180.439 382.825 178.929C382.755 180.239 382.735 181.539 382.745 182.839V183.709L382.935 184.999L383.425 188.379L384.355 194.859H384.915Z" fill="white"/>
<path d="M381.745 194.859H380.235L379.295 188.379L378.625 183.709C378.615 182.119 378.615 180.529 378.705 178.929C379.235 180.439 379.675 181.969 380.125 183.489L380.785 188.169L381.425 192.629L381.745 194.859Z" fill="white"/>
<path d="M382.935 184.119V184.999L382.925 188.719V194.859H381.425V184.119C381.645 182.589 381.865 181.059 382.175 179.519C382.395 180.629 382.585 181.739 382.745 182.839C382.815 183.269 382.875 183.689 382.935 184.119Z" fill="white"/>
<path d="M387.555 184.888L387.035 189.458L386.425 194.858H384.915L385.335 191.148L385.545 189.288L386.055 184.718C386.445 183.218 386.835 181.718 387.315 180.238C387.455 181.788 387.505 183.338 387.555 184.888Z" fill="white"/>
<path d="M377.115 200.979V206.379C377.375 206.349 377.635 206.329 377.895 206.299L380.145 201.249C379.135 201.179 378.125 201.099 377.115 200.979ZM380.425 201.339L378.015 206.289C379.465 206.139 380.925 206.039 382.375 205.979L380.425 201.339ZM380.745 201.289L382.805 205.729L384.445 201.439C383.215 201.419 381.975 201.359 380.745 201.289L380.745 201.289ZM384.965 201.869L383.275 205.949C384.345 205.909 385.405 205.889 386.475 205.879L384.965 201.869ZM387.095 201.479C386.575 201.469 386.045 201.459 385.525 201.459L387.055 205.229L388.355 201.459C387.935 201.469 387.515 201.469 387.095 201.479L387.095 201.479ZM389.025 202.429L387.715 205.879C388.555 205.889 389.395 205.899 390.235 205.929C389.815 204.759 389.415 203.599 389.025 202.429V202.429ZM389.725 201.439C390.155 202.629 390.565 203.819 390.965 205.009C391.505 203.779 392.035 202.559 392.585 201.339C391.635 201.389 390.685 201.419 389.725 201.439L389.725 201.439ZM393.145 201.899C392.645 203.259 392.126 204.609 391.605 205.969C392.755 206.009 393.905 206.079 395.045 206.179C394.385 204.759 393.765 203.339 393.145 201.899L393.145 201.899ZM377.115 194.859V200.979C380.429 200.618 383.762 200.451 387.095 200.479C387.705 200.479 388.315 200.489 388.925 200.499C389.014 200.474 389.107 200.474 389.195 200.499C390.475 200.519 391.745 200.569 393.015 200.639C393.048 200.627 393.081 200.621 393.115 200.619C393.167 200.619 393.218 200.629 393.265 200.649C394.535 200.729 395.805 200.829 397.075 200.979V194.859L377.115 194.859ZM379.445 199.329C379.056 199.316 378.687 199.152 378.416 198.872C378.146 198.593 377.994 198.218 377.994 197.829C377.994 197.439 378.146 197.065 378.416 196.785C378.687 196.505 379.056 196.342 379.445 196.329C379.834 196.343 380.202 196.507 380.472 196.786C380.743 197.066 380.894 197.44 380.894 197.829C380.894 198.218 380.743 198.592 380.472 198.871C380.202 199.151 379.834 199.315 379.445 199.329L379.445 199.329ZM384.845 199.329C384.456 199.316 384.087 199.152 383.816 198.872C383.545 198.593 383.394 198.218 383.394 197.829C383.394 197.439 383.545 197.065 383.816 196.785C384.087 196.505 384.456 196.342 384.845 196.329C385.234 196.343 385.602 196.507 385.872 196.786C386.143 197.066 386.294 197.44 386.294 197.829C386.294 198.218 386.143 198.592 385.872 198.871C385.602 199.151 385.234 199.315 384.845 199.329L384.845 199.329ZM390.065 199.149C389.676 199.136 389.307 198.972 389.036 198.693C388.766 198.413 388.614 198.038 388.614 197.649C388.614 197.26 388.766 196.885 389.036 196.605C389.307 196.326 389.676 196.162 390.065 196.149C390.454 196.163 390.822 196.327 391.093 196.606C391.363 196.886 391.514 197.26 391.514 197.649C391.514 198.038 391.363 198.412 391.093 198.691C390.822 198.971 390.454 199.135 390.065 199.149L390.065 199.149ZM395.195 199.329C394.806 199.316 394.437 199.152 394.166 198.872C393.896 198.593 393.744 198.218 393.744 197.829C393.744 197.439 393.896 197.065 394.166 196.785C394.437 196.505 394.806 196.342 395.195 196.329C395.584 196.343 395.952 196.507 396.222 196.786C396.493 197.066 396.644 197.44 396.644 197.829C396.644 198.218 396.493 198.592 396.222 198.871C395.952 199.151 395.584 199.315 395.195 199.329L395.195 199.329ZM393.586 201.279C394.145 202.909 394.685 204.539 395.185 206.189C395.815 206.249 396.445 206.299 397.075 206.379V200.979C395.915 201.109 394.755 201.209 393.585 201.279L393.586 201.279ZM380.425 201.339L378.015 206.289C379.465 206.139 380.925 206.039 382.376 205.979L380.425 201.339ZM380.745 201.289L382.805 205.729L384.445 201.439C383.215 201.419 381.975 201.359 380.745 201.289L380.745 201.289ZM384.965 201.869L383.275 205.949C384.345 205.909 385.405 205.889 386.475 205.879L384.965 201.869ZM387.095 201.479C386.575 201.469 386.046 201.459 385.525 201.459L387.055 205.229L388.355 201.459C387.935 201.469 387.515 201.469 387.095 201.479L387.095 201.479ZM389.025 202.429L387.715 205.879C388.556 205.889 389.395 205.899 390.235 205.929C389.815 204.759 389.415 203.599 389.025 202.429L389.025 202.429ZM389.725 201.439C390.155 202.629 390.566 203.819 390.965 205.009C391.505 203.779 392.036 202.559 392.586 201.339C391.635 201.389 390.685 201.419 389.725 201.439L389.725 201.439ZM393.145 201.899C392.645 203.259 392.126 204.609 391.606 205.969C392.755 206.009 393.905 206.079 395.046 206.179C394.385 204.759 393.765 203.339 393.145 201.899L393.145 201.899ZM380.425 201.339L378.015 206.289C379.465 206.139 380.925 206.039 382.376 205.979L380.425 201.339ZM380.745 201.289L382.806 205.729L384.445 201.439C383.215 201.419 381.975 201.359 380.745 201.289L380.745 201.289ZM384.965 201.869L383.276 205.949C384.345 205.909 385.405 205.889 386.476 205.879L384.965 201.869ZM387.095 201.479C386.575 201.469 386.046 201.459 385.526 201.459L387.056 205.229L388.356 201.459C387.935 201.469 387.515 201.469 387.095 201.479L387.095 201.479ZM389.026 202.429L387.715 205.879C388.556 205.889 389.395 205.899 390.235 205.929C389.815 204.759 389.415 203.599 389.025 202.429L389.026 202.429ZM389.726 201.439C390.155 202.629 390.566 203.819 390.966 205.009C391.506 203.779 392.036 202.559 392.586 201.339C391.635 201.389 390.685 201.419 389.725 201.439L389.726 201.439ZM393.145 201.899C392.645 203.259 392.126 204.609 391.606 205.969C392.756 206.009 393.905 206.079 395.046 206.179C394.385 204.759 393.765 203.339 393.145 201.899L393.145 201.899ZM377.115 212.229V213.469C377.115 216.116 378.167 218.654 380.039 220.526C381.91 222.398 384.449 223.449 387.095 223.449C389.742 223.449 392.281 222.398 394.152 220.526C396.024 218.654 397.075 216.116 397.075 213.469V212.229C390.439 212.896 383.752 212.896 377.115 212.229ZM391.175 206.799C391.111 206.842 391.038 206.869 390.962 206.878C390.885 206.886 390.807 206.877 390.736 206.849C390.715 206.837 390.695 206.824 390.675 206.809C389.486 206.849 388.286 206.869 387.095 206.879C383.762 206.897 380.43 206.731 377.115 206.379V212.229C383.752 211.562 390.439 211.562 397.075 212.229V206.379C395.105 206.609 393.145 206.729 391.175 206.799L391.175 206.799ZM379.895 210.849C379.506 210.836 379.137 210.673 378.866 210.393C378.596 210.113 378.444 209.739 378.444 209.349C378.444 208.96 378.596 208.586 378.866 208.306C379.137 208.026 379.506 207.862 379.895 207.849C380.283 207.864 380.651 208.028 380.92 208.308C381.19 208.588 381.34 208.961 381.34 209.349C381.34 209.737 381.189 210.111 380.92 210.39C380.651 210.67 380.283 210.834 379.895 210.849L379.895 210.849ZM384.486 210.759C384.096 210.746 383.727 210.583 383.457 210.303C383.186 210.023 383.034 209.649 383.034 209.259C383.034 208.87 383.186 208.495 383.457 208.216C383.727 207.936 384.096 207.772 384.486 207.759C384.874 207.774 385.241 207.938 385.51 208.218C385.78 208.497 385.93 208.871 385.93 209.259C385.93 209.647 385.78 210.021 385.51 210.3C385.241 210.58 384.873 210.744 384.485 210.759L384.486 210.759ZM389.526 210.759C389.136 210.746 388.767 210.583 388.496 210.303C388.226 210.023 388.074 209.649 388.074 209.259C388.074 208.87 388.226 208.495 388.496 208.216C388.767 207.936 389.136 207.772 389.526 207.759C389.914 207.774 390.281 207.938 390.55 208.218C390.82 208.497 390.97 208.871 390.97 209.259C390.97 209.647 390.82 210.02 390.55 210.3C390.281 210.58 389.913 210.744 389.525 210.759L389.526 210.759ZM394.566 210.579C394.176 210.566 393.807 210.403 393.536 210.123C393.266 209.843 393.114 209.469 393.114 209.079C393.114 208.69 393.266 208.316 393.536 208.036C393.807 207.756 394.176 207.592 394.566 207.579C394.954 207.594 395.321 207.758 395.59 208.038C395.86 208.317 396.01 208.691 396.01 209.079C396.01 209.467 395.86 209.841 395.59 210.12C395.321 210.4 394.953 210.564 394.565 210.579L394.566 210.579ZM395.046 206.179C394.385 204.759 393.766 203.339 393.145 201.899C392.645 203.259 392.126 204.609 391.606 205.969C392.755 206.009 393.905 206.079 395.045 206.179L395.046 206.179ZM392.586 201.339C391.635 201.389 390.685 201.419 389.725 201.439C390.155 202.629 390.566 203.819 390.965 205.009C391.505 203.779 392.035 202.559 392.585 201.339L392.586 201.339ZM390.235 205.929C389.816 204.759 389.415 203.599 389.025 202.429L387.715 205.879C388.555 205.889 389.395 205.899 390.235 205.929L390.235 205.929ZM388.356 201.459C387.935 201.469 387.515 201.469 387.095 201.479C386.575 201.469 386.046 201.459 385.525 201.459L387.055 205.229L388.356 201.459ZM386.475 205.879L384.965 201.869L383.275 205.949C384.345 205.909 385.405 205.889 386.475 205.879L386.475 205.879ZM384.445 201.439C383.215 201.419 381.975 201.359 380.745 201.289L382.805 205.729L384.445 201.439ZM380.425 201.339L378.016 206.289C379.466 206.139 380.925 206.039 382.376 205.979L380.425 201.339ZM393.145 201.899C392.645 203.259 392.126 204.609 391.606 205.969C392.756 206.009 393.905 206.079 395.046 206.179C394.385 204.759 393.765 203.339 393.145 201.899L393.145 201.899ZM389.725 201.439C390.155 202.629 390.566 203.819 390.966 205.009C391.506 203.779 392.036 202.559 392.586 201.339C391.635 201.389 390.685 201.419 389.725 201.439L389.725 201.439ZM389.026 202.429L387.715 205.879C388.556 205.889 389.395 205.899 390.235 205.929C389.815 204.759 389.415 203.599 389.025 202.429L389.026 202.429ZM387.095 201.479C386.575 201.469 386.046 201.459 385.526 201.459L387.056 205.229L388.355 201.459C387.935 201.469 387.515 201.469 387.095 201.479L387.095 201.479ZM384.965 201.869L383.276 205.949C384.345 205.909 385.405 205.889 386.475 205.879L384.965 201.869ZM380.745 201.289L382.806 205.729L384.445 201.439C383.215 201.419 381.975 201.359 380.745 201.289L380.745 201.289ZM380.425 201.339L378.015 206.289C379.465 206.139 380.925 206.039 382.376 205.979L380.425 201.339ZM393.145 201.899C392.645 203.259 392.126 204.609 391.606 205.969C392.755 206.009 393.905 206.079 395.046 206.179C394.385 204.759 393.765 203.339 393.145 201.899L393.145 201.899ZM389.725 201.439C390.155 202.629 390.566 203.819 390.965 205.009C391.505 203.779 392.036 202.559 392.586 201.339C391.635 201.389 390.685 201.419 389.725 201.439L389.725 201.439ZM389.025 202.429L387.715 205.879C388.555 205.889 389.395 205.899 390.235 205.929C389.815 204.759 389.415 203.599 389.025 202.429L389.025 202.429ZM387.095 201.479C386.575 201.469 386.045 201.459 385.525 201.459L387.055 205.229L388.355 201.459C387.935 201.469 387.515 201.469 387.095 201.479L387.095 201.479ZM384.965 201.869L383.275 205.949C384.345 205.909 385.405 205.889 386.475 205.879L384.965 201.869ZM380.745 201.289L382.805 205.729L384.445 201.439C383.215 201.419 381.975 201.359 380.745 201.289L380.745 201.289ZM380.425 201.339L378.015 206.289C379.465 206.139 380.925 206.039 382.376 205.979L380.425 201.339Z" fill="white"/>
<path d="M214.674 365.396C214.859 367.866 214.954 370.335 215.085 372.804C215.221 375.274 215.282 377.743 215.372 380.212C215.428 382.682 215.519 385.151 215.546 387.62C215.578 390.09 215.641 392.559 215.641 395.028L214.929 394.095L221.888 395.973L221.391 395.966L228.325 394.322L227.594 395.252C227.654 390.669 227.738 386.086 227.883 381.503C227.97 379.211 228.035 376.92 228.165 374.628C228.284 372.337 228.378 370.045 228.551 367.754C228.724 370.045 228.818 372.337 228.938 374.628C229.067 376.92 229.132 379.211 229.219 381.503C229.364 386.086 229.448 390.669 229.508 395.252C229.511 395.464 229.442 395.671 229.313 395.839C229.183 396.007 229 396.127 228.794 396.178L228.777 396.182L221.86 397.899C221.696 397.939 221.525 397.937 221.363 397.892L214.418 395.962C214.214 395.905 214.034 395.783 213.906 395.615C213.777 395.446 213.707 395.24 213.706 395.029C213.707 392.559 213.77 390.09 213.802 387.621C213.829 385.151 213.92 382.682 213.976 380.213C214.065 377.743 214.126 375.274 214.263 372.805C214.393 370.335 214.488 367.866 214.674 365.396Z" fill="white"/>
<path d="M221.613 367.639C222.103 372.521 222.217 377.403 222.239 382.285C222.224 387.167 222.115 392.05 221.626 396.932C221.133 392.05 221.019 387.168 220.999 382.286C221.017 377.403 221.127 372.521 221.613 367.639Z" fill="white"/>
<path d="M151.13 332.417C151.326 334.886 151.422 337.356 151.562 339.825C151.688 342.294 151.774 344.764 151.849 347.233C151.993 352.172 152.091 357.11 152.106 362.049L151.388 361.108C153.709 361.728 156.031 362.346 158.342 363.004L157.85 362.997C160.163 362.453 162.47 361.889 164.791 361.379L164.088 362.272C164.128 360.291 164.139 358.31 164.203 356.329C164.264 354.348 164.297 352.366 164.383 350.385C164.453 348.404 164.536 346.423 164.652 344.441C164.758 342.46 164.851 340.479 165.008 338.498C165.164 340.479 165.257 342.46 165.364 344.441C165.48 346.423 165.562 348.404 165.632 350.385C165.718 352.366 165.751 354.348 165.813 356.329C165.876 358.31 165.887 360.291 165.927 362.272C165.931 362.473 165.868 362.669 165.748 362.829C165.627 362.989 165.456 363.105 165.262 363.156L165.224 363.166C162.928 363.777 160.619 364.332 158.314 364.909C158.159 364.948 157.997 364.948 157.843 364.908L157.822 364.902C155.499 364.291 153.186 363.639 150.873 362.991L150.864 362.988C150.659 362.93 150.479 362.808 150.351 362.638C150.223 362.468 150.154 362.261 150.154 362.049C150.17 357.11 150.268 352.172 150.411 347.233C150.486 344.764 150.573 342.294 150.699 339.825C150.839 337.356 150.934 334.886 151.13 332.417Z" fill="white"/>
<path d="M158.069 334.659C158.559 339.541 158.673 344.423 158.696 349.306C158.68 354.188 158.571 359.07 158.082 363.953C157.589 359.071 157.475 354.188 157.455 349.306C157.473 344.424 157.583 339.542 158.069 334.659Z" fill="white"/>
<path d="M316.449 354.822C316.617 357.017 316.711 359.212 316.826 361.407C316.951 363.603 317.021 365.798 317.103 367.993C317.249 372.383 317.337 376.774 317.395 381.164L316.873 380.32L323.149 383.42L322.443 383.35C324.894 382.653 327.362 382.02 329.821 381.351L329.108 382.285C329.109 379.863 329.169 377.44 329.202 375.018C329.229 372.595 329.319 370.173 329.376 367.75C329.464 365.328 329.528 362.905 329.663 360.483C329.795 358.06 329.89 355.638 330.077 353.215C330.264 355.638 330.359 358.06 330.491 360.483C330.626 362.905 330.69 365.328 330.778 367.75C330.835 370.173 330.925 372.595 330.952 375.018C330.985 377.44 331.045 379.863 331.046 382.285C331.045 382.498 330.975 382.704 330.846 382.872C330.718 383.041 330.537 383.163 330.333 383.22C327.877 383.898 325.43 384.611 322.966 385.26L322.951 385.264C322.719 385.325 322.473 385.299 322.26 385.19L316.025 382.009L316.009 382.001C315.855 381.922 315.726 381.802 315.637 381.654C315.548 381.507 315.502 381.337 315.504 381.164C315.562 376.774 315.649 372.383 315.795 367.993C315.877 365.798 315.948 363.603 316.073 361.407C316.188 359.212 316.282 357.017 316.449 354.822Z" fill="white"/>
<path d="M323.263 354.013C323.658 359.07 323.677 364.121 323.604 369.17C323.493 374.219 323.289 379.265 322.705 384.305C322.307 379.247 322.288 374.196 322.364 369.147C322.477 364.099 322.682 359.052 323.263 354.013Z" fill="white"/>
<path d="M397.087 303.669C396.095 303.612 395.122 303.381 394.211 302.986C391.484 301.883 389.048 300.167 387.092 297.971C388.001 298.32 388.885 298.732 389.736 299.205C390.588 299.649 391.404 300.142 392.226 300.62C393.034 301.124 393.848 301.606 394.646 302.125C395.455 302.63 396.24 303.16 397.087 303.669Z" fill="white"/>
<path d="M192.655 186.229C193.464 187.557 194.431 188.783 195.535 189.879C194.417 189.917 193.307 189.677 192.305 189.178C191.581 188.806 190.97 188.246 190.535 187.559C190.111 186.861 189.876 186.065 189.855 185.249C189.835 184.132 190.096 183.028 190.615 182.039C191.12 183.514 191.805 184.921 192.655 186.229Z" fill="white"/>
<path d="M196.305 186.669C196.325 187.787 196.06 188.891 195.535 189.879C195.031 188.403 194.346 186.996 193.495 185.689C192.684 184.362 191.717 183.136 190.615 182.038C191.731 181.999 192.839 182.243 193.835 182.748C194.559 183.12 195.173 183.676 195.615 184.358C196.049 185.052 196.287 185.85 196.305 186.669Z" fill="white"/>
<path d="M189.985 195.769C190.795 197.1 191.766 198.326 192.875 199.419C191.757 199.459 190.647 199.218 189.645 198.719C188.919 198.346 188.305 197.787 187.865 197.099C187.441 196.401 187.206 195.605 187.185 194.789C187.165 193.672 187.426 192.568 187.945 191.579C188.454 193.052 189.139 194.459 189.985 195.769Z" fill="white"/>
<path d="M193.635 196.209C193.655 197.325 193.393 198.429 192.875 199.419C192.362 197.947 191.678 196.54 190.835 195.229C190.02 193.902 189.05 192.677 187.945 191.579C189.062 191.538 190.17 191.782 191.165 192.289C191.896 192.654 192.513 193.212 192.948 193.903C193.384 194.594 193.621 195.392 193.635 196.209L193.635 196.209Z" fill="white"/>
<path d="M186.975 206.269C187.787 207.598 188.758 208.823 189.865 209.919C188.745 209.961 187.634 209.716 186.635 209.209C185.907 208.843 185.292 208.286 184.855 207.599C184.431 206.901 184.196 206.105 184.175 205.289C184.154 204.172 184.415 203.067 184.935 202.079C185.444 203.552 186.129 204.959 186.975 206.269Z" fill="white"/>
<path d="M190.625 206.699C190.646 207.819 190.384 208.926 189.865 209.919C189.353 208.445 188.665 207.038 187.815 205.729C187.003 204.402 186.037 203.177 184.935 202.079C186.051 202.038 187.16 202.282 188.155 202.789C188.879 203.161 189.493 203.716 189.935 204.399C190.367 205.09 190.606 205.884 190.625 206.699Z" fill="white"/>
<path d="M185.505 217.449C186.318 218.78 187.288 220.009 188.395 221.109C187.275 221.151 186.164 220.906 185.165 220.399C184.439 220.028 183.827 219.468 183.394 218.778C182.961 218.088 182.723 217.293 182.705 216.479C182.688 215.362 182.949 214.259 183.465 213.269C183.978 214.737 184.663 216.14 185.505 217.449Z" fill="white"/>
<path d="M189.155 217.888C189.18 219.009 188.919 220.118 188.395 221.109C187.339 218.169 185.657 215.494 183.465 213.269C184.581 213.228 185.689 213.472 186.685 213.979C187.413 214.345 188.028 214.901 188.465 215.589C188.903 216.277 189.141 217.073 189.155 217.888Z" fill="white"/>
<path d="M185.066 224.282C186.183 224.244 187.291 224.488 188.288 224.99C189.014 225.361 189.629 225.919 190.069 226.605C190.502 227.296 190.74 228.091 190.758 228.905C190.78 230.025 190.516 231.131 189.993 232.12C188.874 232.163 187.763 231.92 186.764 231.416C186.038 231.046 185.425 230.486 184.99 229.797C184.562 229.103 184.327 228.307 184.308 227.492C184.287 226.375 184.548 225.271 185.066 224.282Z" fill="white"/>
<path d="M199.345 189.169C198.007 189.8 196.717 190.529 195.485 191.348C195.657 190.286 196.048 189.271 196.635 188.368C197.039 187.758 197.594 187.262 198.245 186.928C198.878 186.618 199.583 186.487 200.285 186.548C201.318 186.652 202.333 186.887 203.305 187.248L199.345 189.169Z" fill="white"/>
<path d="M202.745 190.569C202.325 191.31 201.694 191.91 200.931 192.291C200.169 192.672 199.311 192.817 198.465 192.709C197.361 192.554 196.325 192.082 195.485 191.349C196.24 191.281 196.984 191.13 197.705 190.899C198.42 190.67 199.119 190.393 199.795 190.069C200.473 189.734 201.119 189.339 201.725 188.888C202.347 188.442 202.882 187.886 203.305 187.249C203.545 188.386 203.344 189.572 202.745 190.569Z" fill="white"/>
<path d="M197.785 198.169C196.135 198.769 194.455 199.299 192.765 200.009C193.25 198.935 193.936 197.964 194.785 197.149C195.407 196.563 196.142 196.11 196.945 195.819C197.706 195.543 198.518 195.434 199.325 195.499C200.439 195.61 201.542 195.808 202.625 196.089C201.078 196.926 199.458 197.622 197.785 198.169Z" fill="white"/>
<path d="M201.495 199.689C200.841 200.487 199.984 201.094 199.015 201.447C198.046 201.801 196.999 201.888 195.985 201.699C194.767 201.47 193.646 200.881 192.765 200.009C193.677 200.045 194.59 199.974 195.485 199.799C196.38 199.643 197.259 199.412 198.115 199.109C198.982 198.811 199.814 198.419 200.595 197.939C201.393 197.47 202.084 196.84 202.625 196.089C202.695 196.734 202.631 197.388 202.437 198.007C202.242 198.627 201.922 199.199 201.495 199.689Z" fill="white"/>
<path d="M195.905 205.949C194.255 206.549 192.575 207.079 190.885 207.789C191.369 206.713 192.059 205.741 192.915 204.929C193.532 204.341 194.264 203.888 195.065 203.599C195.826 203.323 196.638 203.214 197.445 203.279C198.558 203.391 199.662 203.588 200.745 203.869C199.197 204.706 197.577 205.402 195.905 205.949Z" fill="white"/>
<path d="M199.615 207.469C198.96 208.266 198.104 208.873 197.135 209.227C196.166 209.581 195.119 209.667 194.105 209.479C192.887 209.25 191.765 208.661 190.885 207.789C191.797 207.824 192.709 207.754 193.605 207.579C194.499 207.423 195.379 207.192 196.235 206.888C197.102 206.591 197.934 206.199 198.715 205.719C199.513 205.25 200.204 204.62 200.745 203.869C200.815 204.514 200.751 205.167 200.556 205.787C200.362 206.406 200.041 206.979 199.615 207.469Z" fill="white"/>
<path d="M194.325 215.479C192.655 216.239 190.905 216.859 189.155 217.639C189.644 216.536 190.332 215.532 191.185 214.679C191.799 214.058 192.521 213.553 193.315 213.189C194.045 212.867 194.828 212.683 195.625 212.649C196.485 212.569 197.365 212.739 198.915 212.529C198.298 213.217 197.572 213.798 196.765 214.249C195.98 214.712 195.164 215.123 194.325 215.479Z" fill="white"/>
<path d="M199.205 213.619C199.216 213.974 199.193 214.329 199.135 214.679C198.994 215.325 198.733 215.939 198.365 216.489C197.72 217.455 196.81 218.215 195.745 218.679C194.756 219.116 193.67 219.285 192.595 219.169C191.319 219.021 190.119 218.488 189.155 217.639C190.116 217.638 191.073 217.521 192.005 217.289C192.942 217.077 193.856 216.775 194.735 216.389C195.632 216.006 196.471 215.498 197.225 214.879C198.012 214.283 198.601 213.464 198.915 212.529C198.99 212.704 199.054 212.885 199.105 213.069C199.149 213.25 199.182 213.434 199.205 213.619Z" fill="white"/>
<path d="M189.115 229.029C189.17 227.928 189.411 226.845 189.828 225.825C190.101 225.152 190.512 224.544 191.034 224.039C191.503 223.611 192.067 223.302 192.681 223.137C193.649 222.956 194.585 222.633 195.458 222.179C195.603 222.287 195.742 222.404 195.872 222.529C195.989 222.661 196.098 222.801 196.199 222.946C196.369 223.237 196.501 223.548 196.593 223.872C196.741 224.478 196.753 225.109 196.628 225.721C196.428 226.774 195.89 227.733 195.096 228.453C194.381 229.115 193.481 229.543 192.517 229.682C191.342 229.843 190.147 229.614 189.115 229.029Z" fill="white"/>
<path d="M198.785 180.079C198.203 181.678 197.807 183.339 197.605 185.029C196.879 184.11 196.398 183.023 196.205 181.869C196.064 180.995 196.136 180.099 196.415 179.259C196.705 178.42 197.2 177.667 197.855 177.069C198.721 176.283 199.769 175.726 200.905 175.449C200.025 176.907 199.314 178.46 198.785 180.079Z" fill="white"/>
<path d="M202.095 181.219C201.799 182.054 201.301 182.803 200.645 183.399C199.785 184.19 198.739 184.75 197.605 185.029C198.477 183.567 199.188 182.014 199.725 180.399C200.306 178.799 200.701 177.138 200.905 175.449C201.633 176.367 202.118 177.454 202.315 178.609C202.457 179.484 202.382 180.38 202.095 181.219Z" fill="white"/>
<path d="M185.066 224.281C186.172 225.378 187.141 226.605 187.953 227.935C188.801 229.242 189.486 230.647 189.993 232.12C188.885 231.024 187.916 229.798 187.106 228.467C186.26 227.159 185.575 225.754 185.066 224.281Z" fill="white"/>
<path d="M189.115 229.029C190.333 227.907 191.585 226.944 192.727 225.879C193.305 225.369 193.841 224.813 194.328 224.216C194.835 223.618 195.219 222.925 195.458 222.179C195.598 223.031 195.429 223.905 194.981 224.643C194.57 225.384 194.037 226.051 193.404 226.614C192.79 227.173 192.116 227.662 191.395 228.072C190.682 228.493 189.915 228.815 189.115 229.029Z" fill="white"/>
<path d="M183.825 236.449C183.985 236.759 184.135 237.079 184.285 237.389C184.455 237.749 184.625 238.099 184.795 238.459C185.095 239.089 185.395 239.709 185.685 240.339C185.945 239.649 186.215 238.969 186.475 238.289C186.635 237.899 186.795 237.499 186.955 237.109C187.015 236.939 187.085 236.779 187.155 236.609C186.045 236.579 184.935 236.529 183.825 236.449ZM188.135 238.119L187.875 237.489C187.785 237.719 187.695 237.949 187.605 238.179C187.215 239.169 186.825 240.159 186.415 241.139C187.395 241.099 188.375 241.069 189.355 241.059L188.135 238.119ZM191.305 236.639C190.825 236.639 190.345 236.649 189.855 236.659C189.435 236.649 189.015 236.649 188.585 236.639L188.695 236.919L189.105 238.029L189.995 240.399L190.955 237.849L191.405 236.639L191.305 236.639ZM192.155 237.729L191.945 237.139L191.725 237.769L190.595 241.069C191.525 241.079 192.455 241.099 193.395 241.139L192.155 237.729ZM192.445 236.619L192.795 237.669L193.845 240.839L195.315 237.429L195.725 236.469C194.635 236.539 193.535 236.589 192.445 236.619H192.445ZM196.335 237.329L196.025 236.569L195.705 237.389L194.235 241.179C195.495 241.249 196.765 241.359 198.035 241.539L196.335 237.329ZM183.825 236.449C183.985 236.759 184.135 237.079 184.285 237.389C184.455 237.749 184.625 238.099 184.795 238.459C185.095 239.089 185.395 239.709 185.685 240.339C185.945 239.649 186.215 238.969 186.475 238.289C186.635 237.899 186.795 237.499 186.955 237.109C187.015 236.939 187.085 236.779 187.155 236.609C186.045 236.579 184.935 236.529 183.825 236.449L183.825 236.449ZM188.135 238.119L187.875 237.489C187.785 237.719 187.695 237.949 187.605 238.179C187.215 239.169 186.825 240.159 186.415 241.139C187.395 241.099 188.375 241.069 189.355 241.059L188.135 238.119ZM191.305 236.639C190.825 236.639 190.345 236.649 189.855 236.659C189.435 236.649 189.015 236.649 188.585 236.639L188.695 236.919L189.105 238.029L189.995 240.399L190.955 237.849L191.405 236.639L191.305 236.639ZM192.155 237.729L191.945 237.139L191.725 237.769L190.595 241.069C191.525 241.079 192.455 241.099 193.395 241.139L192.155 237.729ZM192.445 236.619L192.795 237.669L193.845 240.839L195.315 237.429L195.725 236.469C194.635 236.539 193.535 236.589 192.445 236.619L192.445 236.619ZM196.335 237.329L196.025 236.569L195.705 237.389L194.235 241.179C195.495 241.249 196.765 241.359 198.035 241.539L196.335 237.329ZM183.295 236.889C183.185 237.099 183.065 237.319 182.955 237.529L183.525 237.469C183.445 237.279 183.375 237.079 183.295 236.889L183.295 236.889ZM183.825 236.449C183.985 236.759 184.135 237.079 184.285 237.389C184.455 237.749 184.625 238.099 184.795 238.459C185.355 238.399 185.915 238.339 186.475 238.289C186.635 237.899 186.795 237.499 186.955 237.109C187.015 236.939 187.085 236.779 187.155 236.609C186.045 236.579 184.935 236.529 183.825 236.449L183.825 236.449ZM187.875 237.489C187.785 237.719 187.695 237.949 187.605 238.179C187.775 238.159 187.955 238.139 188.135 238.119L187.875 237.489ZM189.855 236.659C189.435 236.649 189.015 236.649 188.585 236.639L188.695 236.919C189.565 236.829 190.435 236.729 191.305 236.639C190.825 236.639 190.345 236.649 189.855 236.659L189.855 236.659ZM178.445 221.919L180.665 236.159C181.505 236.049 182.345 235.969 183.175 235.899C183.213 235.871 183.258 235.853 183.305 235.846C183.352 235.839 183.4 235.843 183.445 235.859L183.465 235.879C184.885 235.779 186.295 235.709 187.705 235.679C187.809 235.649 187.92 235.649 188.025 235.679C188.635 235.669 189.245 235.659 189.855 235.659C192.375 235.669 194.885 235.729 197.395 235.969C197.945 236.029 198.505 236.089 199.055 236.159L199.115 235.779L201.265 221.919L178.445 221.919ZM181.975 235.329C181.586 235.315 181.219 235.15 180.949 234.871C180.679 234.591 180.529 234.217 180.529 233.829C180.529 233.44 180.679 233.067 180.949 232.787C181.219 232.507 181.586 232.343 181.975 232.329C182.363 232.343 182.731 232.507 183 232.787C183.27 233.067 183.421 233.44 183.421 233.829C183.421 234.217 183.27 234.591 183 234.87C182.731 235.15 182.363 235.314 181.975 235.329L181.975 235.329ZM187.375 235.329C186.987 235.315 186.619 235.15 186.349 234.871C186.079 234.591 185.929 234.217 185.929 233.829C185.929 233.44 186.079 233.067 186.349 232.787C186.619 232.507 186.987 232.343 187.375 232.329C187.763 232.343 188.131 232.507 188.401 232.787C188.671 233.066 188.822 233.44 188.822 233.829C188.822 234.218 188.671 234.591 188.401 234.871C188.132 235.151 187.764 235.315 187.375 235.329L187.375 235.329ZM192.595 235.149C192.206 235.135 191.839 234.971 191.569 234.691C191.299 234.411 191.148 234.038 191.148 233.649C191.148 233.26 191.299 232.887 191.569 232.607C191.839 232.327 192.206 232.163 192.595 232.149C192.983 232.163 193.351 232.328 193.62 232.607C193.89 232.887 194.04 233.26 194.04 233.649C194.04 234.037 193.89 234.411 193.62 234.69C193.351 234.97 192.983 235.135 192.595 235.149L192.595 235.149ZM197.725 235.329C197.336 235.315 196.969 235.15 196.699 234.871C196.429 234.591 196.279 234.217 196.279 233.829C196.279 233.44 196.429 233.067 196.699 232.787C196.969 232.507 197.336 232.343 197.725 232.329C198.113 232.343 198.481 232.507 198.75 232.787C199.02 233.067 199.171 233.44 199.171 233.829C199.171 234.217 199.02 234.591 198.75 234.87C198.481 235.15 198.113 235.314 197.725 235.329L197.725 235.329ZM196.335 237.329L196.025 236.569L195.705 237.389L194.235 241.179C195.495 241.249 196.765 241.359 198.035 241.539L196.335 237.329ZM192.445 236.619L192.795 237.669L193.845 240.839L195.315 237.429L195.725 236.469C194.635 236.539 193.535 236.589 192.445 236.619H192.445ZM192.155 237.729L191.945 237.139L191.725 237.769L190.595 241.069C191.525 241.079 192.455 241.099 193.395 241.139L192.155 237.729ZM191.305 236.639C190.825 236.639 190.345 236.649 189.855 236.659C189.435 236.649 189.015 236.649 188.585 236.639L188.695 236.919L189.105 238.029L189.995 240.399L190.955 237.849L191.405 236.639L191.305 236.639ZM188.135 238.119L187.875 237.489C187.785 237.719 187.695 237.949 187.605 238.179C187.215 239.169 186.825 240.159 186.415 241.139C187.395 241.099 188.375 241.069 189.355 241.059L188.135 238.119ZM183.825 236.449C183.985 236.759 184.135 237.079 184.285 237.389C184.455 237.749 184.625 238.099 184.795 238.459C185.095 239.089 185.395 239.709 185.685 240.339C185.945 239.649 186.215 238.969 186.475 238.289C186.635 237.899 186.795 237.499 186.955 237.109C187.015 236.939 187.085 236.779 187.155 236.609C186.045 236.579 184.935 236.529 183.825 236.449H183.825ZM196.335 237.329L196.025 236.569L195.705 237.389L194.235 241.179C195.495 241.249 196.765 241.359 198.035 241.539L196.335 237.329ZM192.445 236.619L192.795 237.669L193.845 240.839L195.315 237.429L195.725 236.469C194.635 236.539 193.535 236.589 192.445 236.619L192.445 236.619ZM192.155 237.729L191.945 237.139L191.725 237.769L190.595 241.069C191.525 241.079 192.455 241.099 193.395 241.139L192.155 237.729ZM191.305 236.639C190.825 236.639 190.345 236.649 189.855 236.659C189.435 236.649 189.015 236.649 188.585 236.639L188.695 236.919L189.105 238.029L189.995 240.399L190.955 237.849L191.405 236.639L191.305 236.639ZM188.135 238.119L187.875 237.489C187.785 237.719 187.695 237.949 187.605 238.179C187.215 239.169 186.825 240.159 186.415 241.139C187.395 241.099 188.375 241.069 189.355 241.059L188.135 238.119ZM183.825 236.449C183.985 236.759 184.135 237.079 184.285 237.389C184.455 237.749 184.625 238.099 184.795 238.459C185.095 239.089 185.395 239.709 185.685 240.339C185.945 239.649 186.215 238.969 186.475 238.289C186.635 237.899 186.795 237.499 186.955 237.109C187.015 236.939 187.085 236.779 187.155 236.609C186.045 236.579 184.935 236.529 183.825 236.449L183.825 236.449ZM191.305 236.639C190.435 236.729 189.565 236.829 188.695 236.919L189.105 238.029C189.715 237.969 190.335 237.909 190.955 237.849L191.405 236.639H191.305ZM191.945 237.139L191.725 237.769C191.865 237.759 192.015 237.749 192.155 237.729L191.945 237.139ZM192.445 236.619L192.795 237.669L195.315 237.429L195.725 236.469C194.635 236.539 193.535 236.589 192.445 236.619L192.445 236.619ZM196.025 236.569L195.705 237.389C195.915 237.369 196.125 237.349 196.335 237.329L196.025 236.569ZM196.285 236.429L196.605 237.309L198.135 241.539V241.549C198.162 241.547 198.189 241.551 198.215 241.559L198.915 237.089L199.055 236.159C198.125 236.279 197.205 236.359 196.285 236.429L196.285 236.429ZM198.125 241.569C198.125 241.579 198.125 241.599 198.105 241.599C198.094 241.603 198.082 241.604 198.071 241.6C198.06 241.596 198.051 241.589 198.045 241.579C195.328 241.913 192.593 242.073 189.855 242.059C188.565 242.049 187.275 242.019 185.985 241.959C185.921 242.006 185.846 242.036 185.767 242.044C185.688 242.053 185.608 242.041 185.535 242.009C185.493 241.986 185.453 241.959 185.415 241.929C184.115 241.849 182.805 241.739 181.505 241.559L182.175 245.859H197.545L198.215 241.559C198.185 241.557 198.154 241.561 198.125 241.569L198.125 241.569ZM185.385 245.479C184.996 245.466 184.627 245.302 184.356 245.022C184.085 244.742 183.934 244.368 183.934 243.979C183.934 243.589 184.085 243.215 184.356 242.935C184.627 242.655 184.996 242.492 185.385 242.479C185.774 242.492 186.143 242.655 186.414 242.935C186.685 243.215 186.836 243.589 186.836 243.979C186.836 244.368 186.685 244.742 186.414 245.022C186.143 245.302 185.774 245.466 185.385 245.479ZM190.425 245.479C190.036 245.466 189.667 245.302 189.396 245.022C189.125 244.742 188.974 244.368 188.974 243.979C188.974 243.589 189.125 243.215 189.396 242.935C189.667 242.655 190.036 242.492 190.425 242.479C190.814 242.492 191.183 242.655 191.454 242.935C191.725 243.215 191.876 243.589 191.876 243.979C191.876 244.368 191.725 244.742 191.454 245.022C191.183 245.302 190.814 245.466 190.425 245.479ZM195.465 245.299C195.076 245.286 194.707 245.122 194.436 244.842C194.165 244.562 194.014 244.188 194.014 243.799C194.014 243.409 194.165 243.035 194.436 242.755C194.707 242.475 195.076 242.312 195.465 242.299C195.854 242.312 196.223 242.475 196.494 242.755C196.765 243.035 196.916 243.409 196.916 243.799C196.916 244.188 196.765 244.562 196.494 244.842C196.223 245.122 195.854 245.286 195.465 245.299H195.465ZM196.335 237.329L196.025 236.569L195.705 237.389L194.235 241.179C195.495 241.249 196.765 241.359 198.035 241.539L196.335 237.329ZM192.445 236.619L192.795 237.669L193.845 240.839L195.315 237.429L195.725 236.469C194.635 236.539 193.535 236.589 192.445 236.619L192.445 236.619ZM192.155 237.729L191.945 237.139L191.725 237.769L190.595 241.069C191.525 241.079 192.455 241.099 193.395 241.139L192.155 237.729ZM191.305 236.639C190.825 236.639 190.345 236.649 189.855 236.659C189.435 236.649 189.015 236.649 188.585 236.639L188.695 236.919L189.105 238.029L189.995 240.399L190.955 237.849L191.405 236.639L191.305 236.639ZM188.135 238.119L187.875 237.489C187.785 237.719 187.695 237.949 187.605 238.179C187.215 239.169 186.825 240.159 186.415 241.139C187.395 241.099 188.375 241.069 189.355 241.059L188.135 238.119ZM183.825 236.449C183.985 236.759 184.135 237.079 184.285 237.389C184.455 237.749 184.625 238.099 184.795 238.459C185.095 239.089 185.395 239.709 185.685 240.339C185.945 239.649 186.215 238.969 186.475 238.289C186.635 237.899 186.795 237.499 186.955 237.109C187.015 236.939 187.085 236.779 187.155 236.609C186.045 236.579 184.935 236.529 183.825 236.449L183.825 236.449ZM183.955 238.539C183.815 238.189 183.665 237.829 183.525 237.469C183.445 237.279 183.375 237.079 183.295 236.889C183.185 237.099 183.065 237.319 182.955 237.529C182.755 237.919 182.545 238.309 182.335 238.699C182.025 239.289 181.705 239.879 181.375 240.469C181.371 240.472 181.366 240.475 181.361 240.477C181.356 240.479 181.35 240.479 181.345 240.479L181.505 241.559C182.685 241.389 183.875 241.289 185.055 241.209C184.695 240.319 184.325 239.429 183.955 238.539L183.955 238.539ZM184.795 238.459C185.095 239.089 185.395 239.709 185.685 240.339C185.945 239.649 186.215 238.969 186.475 238.289C185.915 238.339 185.355 238.399 184.795 238.459L184.795 238.459ZM188.135 238.119C187.955 238.139 187.775 238.159 187.605 238.179C187.215 239.169 186.825 240.159 186.415 241.139C187.395 241.099 188.375 241.069 189.355 241.059L188.135 238.119ZM189.105 238.029L189.995 240.399L190.955 237.849C190.335 237.909 189.715 237.969 189.105 238.029L189.105 238.029ZM192.155 237.729C192.015 237.749 191.865 237.759 191.725 237.769L190.595 241.069C191.525 241.079 192.455 241.099 193.395 241.139L192.155 237.729ZM192.795 237.669L193.845 240.839L195.315 237.429L192.795 237.669ZM196.335 237.329C196.125 237.349 195.915 237.369 195.705 237.389L194.235 241.179C195.495 241.249 196.765 241.359 198.035 241.539L196.335 237.329ZM180.665 236.159L180.915 237.749L181.075 238.829L181.315 240.339C181.525 239.799 181.735 239.269 181.945 238.739C182.095 238.349 182.255 237.969 182.415 237.589C182.575 237.189 182.735 236.789 182.905 236.389C182.155 236.329 181.415 236.249 180.665 236.159Z" fill="white"/>
<path d="M191.243 233.885C190.408 233.134 189.79 232.173 189.453 231.103C189.296 230.569 189.092 230.04 188.972 229.494L188.634 227.849C188.358 225.633 188.273 223.397 188.382 221.167C188.421 218.933 188.755 216.732 189.014 214.522C189.419 212.34 189.731 210.133 190.261 207.979C190.758 205.816 191.255 203.653 191.883 201.528C192.488 199.396 193.069 197.258 193.815 195.171C194.536 193.077 195.184 190.96 195.986 188.897C196.797 186.837 197.567 184.764 198.413 182.721C197.237 186.99 195.875 191.187 194.729 195.447L193.838 198.63L193.018 201.83C192.754 202.898 192.434 203.954 192.196 205.027L191.472 208.246C190.922 210.378 190.613 212.553 190.171 214.706C189.847 216.874 189.506 219.043 189.33 221.225C189.115 223.403 189.083 225.594 189.234 227.777L189.429 229.401C189.501 229.943 189.655 230.465 189.764 231.002C190.014 232.069 190.522 233.059 191.243 233.885Z" fill="white"/>
<path d="M181.335 240.449L181.315 240.339L181.285 240.429C181.275 240.449 181.285 240.469 181.305 240.489C181.325 240.499 181.335 240.489 181.345 240.479L181.335 240.449Z" fill="#FCFCFC"/>
<path d="M216.723 242.375C220.002 241.472 223.329 240.752 226.688 240.217C230.04 239.637 233.422 239.246 236.817 239.045C233.538 239.95 230.211 240.67 226.852 241.203C223.5 241.781 220.118 242.172 216.723 242.375Z" fill="white"/>
<path d="M256.415 241.937C259.694 241.034 263.021 240.314 266.38 239.779C269.732 239.199 273.113 238.808 276.509 238.607C273.23 239.512 269.903 240.232 266.543 240.765C263.191 241.342 259.81 241.734 256.415 241.937Z" fill="white"/>
<path d="M297.115 234.883C300.394 233.98 303.721 233.26 307.08 232.725C310.432 232.146 313.814 231.754 317.209 231.553C313.93 232.458 310.603 233.179 307.244 233.711C303.892 234.289 300.51 234.68 297.115 234.883Z" fill="white"/>
<path d="M467.078 298.074C464.99 296.657 463.15 294.904 461.634 292.887C460.08 290.909 458.678 288.815 457.443 286.623C456.2 284.439 455.077 282.191 454.041 279.906C453.004 277.615 452.038 275.315 451.175 272.926L452.125 273.519C447.112 274.168 442.019 273.727 437.192 272.227C434.794 271.524 432.45 270.65 430.178 269.612C427.905 268.602 425.692 267.462 423.55 266.198C419.28 263.687 415.22 260.835 411.41 257.669C407.601 254.521 403.998 251.131 400.624 247.52L400.608 247.502C400.489 247.373 400.423 247.203 400.425 247.027C400.427 246.851 400.496 246.683 400.618 246.556C402.075 245.049 403.582 243.65 405.145 242.288C406.7 240.922 408.34 239.656 410.016 238.439C411.691 237.206 413.475 236.129 415.345 235.219C417.215 234.223 419.283 233.653 421.4 233.549C421.441 233.549 421.482 233.556 421.521 233.569C423.507 234.256 425.51 234.894 427.504 235.559L433.492 237.534C437.478 238.868 441.491 240.124 445.495 241.403L444.725 241.822L449.977 219.833C451.748 212.508 453.552 205.192 455.389 197.885L455.365 198.001C455.493 197.373 455.691 196.761 455.953 196.177C456.182 195.631 456.452 195.122 456.722 194.611C457.285 193.626 457.915 192.681 458.608 191.783C459.969 190.02 461.487 188.382 463.141 186.891C466.407 183.952 469.958 181.347 473.742 179.115C475.634 177.978 477.595 176.96 479.614 176.066C481.641 175.189 483.719 174.438 485.837 173.816C490.077 172.56 494.472 171.906 498.894 171.874C503.309 171.828 507.708 172.417 511.955 173.623C514.083 174.231 516.153 175.023 518.142 175.991C518.634 176.248 519.112 176.533 519.597 176.803L520.321 177.213L521.01 177.685C521.466 178.003 521.933 178.306 522.378 178.638L523.659 179.711C527.01 182.663 529.39 186.56 530.486 190.89C531.439 195.149 531.56 199.552 530.844 203.857C530.841 203.873 530.836 203.889 530.827 203.903C530.819 203.917 530.808 203.929 530.795 203.939C530.782 203.948 530.767 203.955 530.751 203.959C530.735 203.963 530.719 203.964 530.702 203.961C530.671 203.956 530.643 203.94 530.624 203.915C530.604 203.891 530.595 203.86 530.597 203.828C531.013 199.576 530.642 195.283 529.502 191.166C528.283 187.144 525.894 183.575 522.639 180.916L521.405 179.965C520.976 179.672 520.526 179.407 520.088 179.127L519.429 178.712L518.732 178.356C518.266 178.122 517.81 177.873 517.339 177.651C515.43 176.79 513.451 176.092 511.425 175.565C507.35 174.518 503.146 174.062 498.942 174.211C496.845 174.276 494.756 174.488 492.689 174.847C490.619 175.185 488.575 175.661 486.569 176.274C484.564 176.888 482.598 177.625 480.683 178.479C478.774 179.348 476.913 180.319 475.109 181.388C471.478 183.54 468.052 186.021 464.874 188.799C463.309 190.168 461.871 191.675 460.577 193.302C459.943 194.099 459.365 194.938 458.847 195.815C458.609 196.253 458.367 196.69 458.174 197.136C457.991 197.532 457.843 197.943 457.733 198.365L457.71 198.481C455.796 205.769 453.852 213.049 451.877 220.321L445.884 242.119L445.879 242.138C445.859 242.213 445.824 242.283 445.776 242.344C445.729 242.405 445.669 242.456 445.602 242.495C445.535 242.533 445.46 242.557 445.383 242.567C445.307 242.577 445.229 242.571 445.154 242.55L445.114 242.538C441.15 241.136 437.195 239.711 433.212 238.365L427.249 236.318C425.258 235.643 423.277 234.94 421.28 234.287L421.4 234.307C419.403 234.428 417.457 234.988 415.7 235.946C413.895 236.87 412.181 237.962 410.58 239.206C408.958 240.437 407.407 241.757 405.932 243.16C404.455 244.555 403.01 246.012 401.671 247.513L401.665 246.549C405.123 249.965 408.794 253.157 412.657 256.107C416.48 259.086 420.493 261.815 424.67 264.275C426.76 265.488 428.888 266.629 431.078 267.627C433.253 268.648 435.497 269.511 437.796 270.209C442.333 271.705 447.132 272.242 451.887 271.784L451.922 271.781C452.12 271.76 452.319 271.808 452.486 271.916C452.653 272.025 452.777 272.188 452.837 272.378C453.58 274.705 454.457 277.037 455.39 279.322C456.325 281.611 457.348 283.866 458.489 286.057C459.578 288.273 460.832 290.405 462.24 292.435C463.618 294.485 465.296 296.316 467.218 297.868C467.244 297.888 467.262 297.917 467.267 297.949C467.273 297.982 467.265 298.015 467.245 298.042C467.226 298.067 467.199 298.084 467.168 298.09C467.137 298.096 467.105 298.09 467.078 298.074Z" fill="white"/>
</svg>
