<svg width="64" height="48" viewBox="0 0 64 48" fill="none" xmlns="http://www.w3.org/2000/svg">
<path d="M63.12 3.94542V43.3954C63.12 45.6309 61.4105 47.3404 59.175 47.3404H55.23V11.5382L31.56 28.5359L7.89 11.5382V47.3404H3.945C1.70687 47.3404 0 45.6309 0 43.3954V3.94542C0 2.82767 0.42606 1.84142 1.13353 1.13658C1.50274 0.769325 1.94167 0.479618 2.4245 0.2845C2.90732 0.0893823 3.42429 -0.00720557 3.945 0.00041862H5.26L31.56 19.0679L57.86 0.00041862H59.175C60.2927 0.00041862 61.279 0.426478 61.9865 1.13658C62.6966 1.84142 63.12 2.82767 63.12 3.94542Z" fill="white"/>
</svg>
