<svg width="64" height="64" viewBox="0 0 64 64" fill="none" xmlns="http://www.w3.org/2000/svg">
<path d="M31.56 0C22.9862 0 21.9158 0.03945 18.5494 0.18936C15.1882 0.34716 12.9001 0.87579 10.8882 1.6569C8.81313 2.46168 7.05103 3.54261 5.29682 5.29682C3.54261 7.05103 2.45905 8.8105 1.6569 10.8882C0.87579 12.9001 0.34453 15.1882 0.18936 18.5494C0.03156 21.9158 0 22.9862 0 31.56C0 40.1338 0.03945 41.2042 0.18936 44.5706C0.34716 47.9291 0.87579 50.2198 1.6569 52.2318C2.4493 54.338 3.69146 56.2462 5.29682 57.8232C6.87292 59.4297 8.7813 60.672 10.8882 61.4631C12.9028 62.2416 15.1909 62.7755 18.5494 62.9306C21.9158 63.0884 22.9862 63.12 31.56 63.12C40.1338 63.12 41.2042 63.0805 44.5706 62.9306C47.9291 62.7728 50.2198 62.2416 52.2318 61.4631C54.3375 60.6697 56.2455 59.4277 57.8232 57.8232C59.4302 56.2475 60.6726 54.339 61.4631 52.2318C62.2416 50.2198 62.7755 47.9291 62.9306 44.5706C63.0884 41.2042 63.12 40.1338 63.12 31.56C63.12 22.9862 63.0805 21.9158 62.9306 18.5494C62.7728 15.1909 62.2416 12.8975 61.4631 10.8882C60.6703 8.78215 59.4282 6.8741 57.8232 5.29682C56.2482 3.68895 54.3395 2.4464 52.2318 1.6569C50.2198 0.87579 47.9291 0.34453 44.5706 0.18936C41.2042 0.03156 40.1338 0 31.56 0ZM31.56 5.6808C39.9839 5.6808 40.9885 5.72288 44.3155 5.86753C47.3926 6.01218 49.0626 6.5224 50.1725 6.95898C51.6506 7.52969 52.6973 8.21349 53.8072 9.31546C54.9091 10.4201 55.5929 11.4694 56.1636 12.9475C56.595 14.0573 57.1104 15.7274 57.2498 18.8045C57.3997 22.1341 57.4339 23.1335 57.4339 31.56C57.4339 39.9865 57.3945 40.9885 57.2393 44.3155C57.0789 47.3926 56.566 49.0626 56.1321 50.1725C55.6187 51.5421 54.8117 52.7827 53.7677 53.8072C52.7476 54.8521 51.5079 55.657 50.1383 56.1636C49.0337 56.595 47.3374 57.1104 44.2603 57.2498C40.9096 57.3997 39.9234 57.4339 31.4811 57.4339C23.0362 57.4339 22.0499 57.3945 18.7019 57.2393C15.6222 57.0789 13.9258 56.566 12.8212 56.1321C11.4508 55.625 10.2114 54.8171 9.19448 53.7677C8.13875 52.7545 7.32906 51.513 6.82748 50.1383C6.39353 49.0337 5.88331 47.3374 5.72288 44.2603C5.60453 40.9465 5.56245 39.9234 5.56245 31.5205C5.56245 23.1151 5.60453 22.0894 5.72288 18.7361C5.88331 15.659 6.39353 13.9653 6.82748 12.8607C7.37978 11.3616 8.08725 10.3359 9.19448 9.22867C10.2964 8.1267 11.3248 7.4166 12.8212 6.86693C13.9258 6.43035 15.5854 5.9175 18.6625 5.7597C22.0157 5.64135 23.002 5.6019 31.4416 5.6019L31.56 5.6808V5.6808ZM31.56 15.3539C29.4318 15.3539 27.3244 15.7731 25.3582 16.5876C23.392 17.402 21.6055 18.5957 20.1006 20.1006C18.5957 21.6055 17.402 23.392 16.5876 25.3582C15.7731 27.3244 15.3539 29.4318 15.3539 31.56C15.3539 33.6882 15.7731 35.7956 16.5876 37.7618C17.402 39.728 18.5957 41.5145 20.1006 43.0194C21.6055 44.5243 23.392 45.718 25.3582 46.5324C27.3244 47.3469 29.4318 47.7661 31.56 47.7661C35.8581 47.7661 39.9802 46.0586 43.0194 43.0194C46.0586 39.9802 47.7661 35.8581 47.7661 31.56C47.7661 27.2619 46.0586 23.1398 43.0194 20.1006C39.9802 17.0614 35.8581 15.3539 31.56 15.3539V15.3539ZM31.56 42.08C25.7477 42.08 21.04 37.3723 21.04 31.56C21.04 25.7477 25.7477 21.04 31.56 21.04C37.3723 21.04 42.08 25.7477 42.08 31.56C42.08 37.3723 37.3723 42.08 31.56 42.08ZM52.195 14.7148C52.1585 15.6949 51.7435 16.6225 51.0372 17.303C50.331 17.9834 49.3885 18.3635 48.4078 18.3635C47.4271 18.3635 46.4846 17.9834 45.7783 17.303C45.0721 16.6225 44.6571 15.6949 44.6206 14.7148C44.6206 13.7104 45.0196 12.7471 45.7298 12.0369C46.4401 11.3267 47.4034 10.9277 48.4078 10.9277C49.4122 10.9277 50.3755 11.3267 51.0857 12.0369C51.796 12.7471 52.195 13.7104 52.195 14.7148V14.7148Z" fill="white"/>
</svg>
