<svg width="964" height="498" viewBox="0 0 964 498" fill="none" xmlns="http://www.w3.org/2000/svg">
<path d="M5.00852 148V2.54545H65.0938C75.9839 2.54545 85.3826 4.67613 93.2898 8.9375C101.244 13.1515 107.376 19.0464 111.685 26.6222C115.993 34.1506 118.148 42.91 118.148 52.9006C118.148 62.9384 115.946 71.7216 111.543 79.25C107.187 86.7311 100.96 92.5312 92.8636 96.6506C84.767 100.77 75.1553 102.83 64.0284 102.83H26.9545V75.1307H57.4943C62.7974 75.1307 67.2244 74.2074 70.7756 72.3608C74.3741 70.5142 77.0966 67.9337 78.9432 64.6193C80.7898 61.2576 81.7131 57.3513 81.7131 52.9006C81.7131 48.4025 80.7898 44.5199 78.9432 41.2528C77.0966 37.9384 74.3741 35.3816 70.7756 33.5824C67.1771 31.7831 62.75 30.8835 57.4943 30.8835H40.1648V148H5.00852ZM135.477 148V2.54545H236.898V31.0966H170.634V60.9261H231.713V89.5483H170.634V119.449H236.898V148H135.477ZM290.378 148H252.594L301.67 2.54545H348.474L397.551 148H359.767L325.605 39.1932H324.469L290.378 148ZM285.335 90.7557H364.312V117.46H285.335V90.7557ZM538.407 55.2443H502.896C502.422 51.5985 501.451 48.3078 499.984 45.3722C498.516 42.4366 496.575 39.9271 494.16 37.8438C491.745 35.7604 488.88 34.1742 485.566 33.0852C482.299 31.9489 478.677 31.3807 474.7 31.3807C467.645 31.3807 461.56 33.1089 456.447 36.5653C451.38 40.0218 447.474 45.017 444.728 51.5511C442.029 58.0852 440.68 65.9924 440.68 75.2727C440.68 84.9318 442.053 93.0284 444.799 99.5625C447.593 106.049 451.499 110.95 456.518 114.264C461.584 117.531 467.574 119.165 474.487 119.165C478.369 119.165 481.897 118.668 485.069 117.673C488.289 116.679 491.106 115.235 493.521 113.341C495.983 111.4 497.995 109.056 499.558 106.31C501.167 103.516 502.28 100.367 502.896 96.8636L538.407 97.0767C537.791 103.516 535.921 109.861 532.796 116.111C529.719 122.361 525.481 128.066 520.083 133.227C514.685 138.341 508.104 142.413 500.339 145.443C492.621 148.473 483.767 149.989 473.776 149.989C460.613 149.989 448.824 147.1 438.407 141.324C428.038 135.5 419.846 127.025 413.833 115.898C407.82 104.771 404.813 91.2292 404.813 75.2727C404.813 59.2689 407.867 45.7036 413.975 34.5767C420.083 23.4498 428.345 14.9981 438.762 9.22159C449.179 3.44507 460.85 0.556813 473.776 0.556813C482.583 0.556813 490.727 1.78788 498.208 4.25C505.689 6.66477 512.271 10.2159 517.952 14.9034C523.634 19.5436 528.251 25.2491 531.802 32.0199C535.353 38.7907 537.555 46.5322 538.407 55.2443ZM558.524 148V2.54545H659.945V31.0966H593.68V60.9261H654.76V89.5483H593.68V119.449H659.945V148H558.524ZM0.25 205.097V176.545H123.19V205.097H79.0852V322H44.4261V205.097H0.25ZM140.36 322V176.545H241.781V205.097H175.516V234.926H236.596V263.548H175.516V293.449H241.781V322H140.36ZM263.798 176.545H307.335L344.266 266.602H345.971L382.903 176.545H426.44V322H392.207V232.653H390.999L356.056 321.077H334.181L299.238 232.156H298.031V322H263.798V176.545ZM448.368 322V176.545H508.453C519.343 176.545 528.742 178.676 536.649 182.938C544.604 187.152 550.735 193.046 555.044 200.622C559.353 208.151 561.507 216.91 561.507 226.901C561.507 236.938 559.305 245.722 554.902 253.25C550.546 260.731 544.32 266.531 536.223 270.651C528.126 274.77 518.515 276.83 507.388 276.83H470.314V249.131H500.854C506.157 249.131 510.584 248.207 514.135 246.361C517.733 244.514 520.456 241.934 522.303 238.619C524.149 235.258 525.072 231.351 525.072 226.901C525.072 222.402 524.149 218.52 522.303 215.253C520.456 211.938 517.733 209.382 514.135 207.582C510.536 205.783 506.109 204.884 500.854 204.884H483.524V322H448.368ZM716.124 249.273C716.124 265.277 713.046 278.842 706.891 289.969C700.735 301.096 692.402 309.547 681.891 315.324C671.427 321.1 659.684 323.989 646.663 323.989C633.595 323.989 621.829 321.077 611.365 315.253C600.901 309.429 592.591 300.977 586.436 289.898C580.328 278.771 577.274 265.229 577.274 249.273C577.274 233.269 580.328 219.704 586.436 208.577C592.591 197.45 600.901 188.998 611.365 183.222C621.829 177.445 633.595 174.557 646.663 174.557C659.684 174.557 671.427 177.445 681.891 183.222C692.402 188.998 700.735 197.45 706.891 208.577C713.046 219.704 716.124 233.269 716.124 249.273ZM680.186 249.273C680.186 239.803 678.837 231.801 676.138 225.267C673.486 218.733 669.651 213.785 664.632 210.423C659.661 207.062 653.671 205.381 646.663 205.381C639.703 205.381 633.714 207.062 628.695 210.423C623.676 213.785 619.817 218.733 617.118 225.267C614.466 231.801 613.141 239.803 613.141 249.273C613.141 258.742 614.466 266.744 617.118 273.278C619.817 279.812 623.676 284.76 628.695 288.122C633.714 291.484 639.703 293.165 646.663 293.165C653.671 293.165 659.661 291.484 664.632 288.122C669.651 284.76 673.486 279.812 676.138 273.278C678.837 266.744 680.186 258.742 680.186 249.273ZM5.00852 496V350.545H65.0938C75.9839 350.545 85.3826 352.51 93.2898 356.44C101.244 360.323 107.376 365.91 111.685 373.202C115.993 380.446 118.148 389.04 118.148 398.983C118.148 409.068 115.946 417.638 111.543 424.693C107.139 431.701 100.889 437.051 92.7926 440.744C84.696 444.39 75.108 446.213 64.0284 446.213H26.0312V418.514H57.4943C62.7974 418.514 67.2244 417.828 70.7756 416.455C74.3741 415.034 77.0966 412.903 78.9432 410.062C80.7898 407.174 81.7131 403.481 81.7131 398.983C81.7131 394.485 80.7898 390.768 78.9432 387.832C77.0966 384.849 74.3741 382.624 70.7756 381.156C67.1771 379.641 62.75 378.884 57.4943 378.884H40.1648V496H5.00852ZM86.8977 429.523L123.119 496H84.767L49.2557 429.523H86.8977ZM137.43 496V350.545H238.851V379.097H172.587V408.926H233.666V437.548H172.587V467.449H238.851V496H137.43ZM392.899 403.244H357.388C356.914 399.598 355.944 396.308 354.476 393.372C353.008 390.437 351.067 387.927 348.652 385.844C346.237 383.76 343.373 382.174 340.058 381.085C336.791 379.949 333.169 379.381 329.192 379.381C322.137 379.381 316.053 381.109 310.939 384.565C305.873 388.022 301.966 393.017 299.22 399.551C296.521 406.085 295.172 413.992 295.172 423.273C295.172 432.932 296.545 441.028 299.291 447.562C302.085 454.049 305.991 458.95 311.01 462.264C316.076 465.531 322.066 467.165 328.979 467.165C332.861 467.165 336.389 466.668 339.561 465.673C342.781 464.679 345.598 463.235 348.013 461.341C350.475 459.4 352.487 457.056 354.05 454.31C355.66 451.516 356.772 448.367 357.388 444.864L392.899 445.077C392.284 451.516 390.413 457.861 387.288 464.111C384.211 470.361 379.973 476.066 374.575 481.227C369.178 486.341 362.596 490.413 354.831 493.443C347.113 496.473 338.259 497.989 328.268 497.989C315.106 497.989 303.316 495.1 292.899 489.324C282.53 483.5 274.339 475.025 268.325 463.898C262.312 452.771 259.305 439.229 259.305 423.273C259.305 407.269 262.359 393.704 268.467 382.577C274.575 371.45 282.838 362.998 293.254 357.222C303.671 351.445 315.342 348.557 328.268 348.557C337.075 348.557 345.219 349.788 352.7 352.25C360.181 354.665 366.763 358.216 372.445 362.903C378.126 367.544 382.743 373.249 386.294 380.02C389.845 386.791 392.047 394.532 392.899 403.244ZM550.303 423.273C550.303 439.277 547.226 452.842 541.07 463.969C534.915 475.096 526.582 483.547 516.07 489.324C505.606 495.1 493.864 497.989 480.843 497.989C467.775 497.989 456.009 495.077 445.545 489.253C435.081 483.429 426.771 474.977 420.616 463.898C414.508 452.771 411.454 439.229 411.454 423.273C411.454 407.269 414.508 393.704 420.616 382.577C426.771 371.45 435.081 362.998 445.545 357.222C456.009 351.445 467.775 348.557 480.843 348.557C493.864 348.557 505.606 351.445 516.07 357.222C526.582 362.998 534.915 371.45 541.07 382.577C547.226 393.704 550.303 407.269 550.303 423.273ZM514.366 423.273C514.366 413.803 513.016 405.801 510.317 399.267C507.666 392.733 503.831 387.785 498.812 384.423C493.84 381.062 487.851 379.381 480.843 379.381C473.883 379.381 467.893 381.062 462.874 384.423C457.855 387.785 453.996 392.733 451.298 399.267C448.646 405.801 447.32 413.803 447.32 423.273C447.32 432.742 448.646 440.744 451.298 447.278C453.996 453.812 457.855 458.76 462.874 462.122C467.893 465.484 473.883 467.165 480.843 467.165C487.851 467.165 493.84 465.484 498.812 462.122C503.831 458.76 507.666 453.812 510.317 447.278C513.016 440.744 514.366 432.742 514.366 423.273ZM570.829 496V350.545H630.914C641.804 350.545 651.203 352.51 659.11 356.44C667.065 360.323 673.196 365.91 677.505 373.202C681.814 380.446 683.968 389.04 683.968 398.983C683.968 409.068 681.766 417.638 677.363 424.693C672.96 431.701 666.71 437.051 658.613 440.744C650.516 444.39 640.928 446.213 629.849 446.213H591.852V418.514H623.315C628.618 418.514 633.045 417.828 636.596 416.455C640.194 415.034 642.917 412.903 644.763 410.062C646.61 407.174 647.533 403.481 647.533 398.983C647.533 394.485 646.61 390.768 644.763 387.832C642.917 384.849 640.194 382.624 636.596 381.156C632.997 379.641 628.57 378.884 623.315 378.884H605.985V496H570.829ZM652.718 429.523L688.94 496H650.587L615.076 429.523H652.718ZM757.015 496H703.251V350.545H756.944C771.764 350.545 784.524 353.457 795.225 359.281C805.973 365.058 814.259 373.391 820.083 384.281C825.907 395.124 828.819 408.098 828.819 423.202C828.819 438.353 825.907 451.374 820.083 462.264C814.307 473.154 806.044 481.511 795.296 487.335C784.548 493.112 771.788 496 757.015 496ZM738.407 466.028H755.665C763.809 466.028 770.699 464.655 776.333 461.909C782.015 459.116 786.3 454.594 789.188 448.344C792.124 442.046 793.592 433.666 793.592 423.202C793.592 412.738 792.124 404.404 789.188 398.202C786.253 391.952 781.92 387.454 776.191 384.707C770.509 381.914 763.502 380.517 755.168 380.517H738.407V466.028ZM927.967 394.153C927.493 388.945 925.386 384.897 921.646 382.009C917.952 379.073 912.673 377.605 905.808 377.605C901.262 377.605 897.474 378.197 894.444 379.381C891.414 380.564 889.141 382.198 887.626 384.281C886.111 386.317 885.329 388.661 885.282 391.312C885.187 393.491 885.613 395.408 886.56 397.065C887.555 398.723 888.975 400.19 890.822 401.469C892.716 402.7 894.988 403.789 897.64 404.736C900.291 405.683 903.274 406.511 906.589 407.222L919.089 410.062C926.286 411.625 932.63 413.708 938.123 416.312C943.663 418.917 948.303 422.018 952.043 425.616C955.831 429.215 958.696 433.358 960.637 438.045C962.578 442.733 963.573 447.989 963.62 453.812C963.573 462.998 961.253 470.882 956.66 477.463C952.067 484.045 945.462 489.087 936.844 492.591C928.274 496.095 917.929 497.847 905.808 497.847C893.639 497.847 883.033 496.024 873.989 492.378C864.946 488.732 857.915 483.192 852.896 475.759C847.877 468.325 845.296 458.926 845.154 447.562H878.819C879.103 452.25 880.358 456.156 882.583 459.281C884.808 462.406 887.862 464.774 891.745 466.384C895.675 467.993 900.22 468.798 905.381 468.798C910.116 468.798 914.141 468.159 917.455 466.881C920.817 465.602 923.397 463.827 925.197 461.554C926.996 459.281 927.919 456.677 927.967 453.741C927.919 450.995 927.067 448.652 925.41 446.71C923.753 444.722 921.196 443.017 917.739 441.597C914.33 440.129 909.974 438.779 904.671 437.548L889.472 433.997C876.878 431.109 866.958 426.445 859.714 420.006C852.469 413.519 848.871 404.759 848.918 393.727C848.871 384.731 851.286 376.848 856.163 370.077C861.04 363.306 867.787 358.027 876.404 354.239C885.022 350.451 894.846 348.557 905.879 348.557C917.147 348.557 926.925 350.474 935.211 354.31C943.544 358.098 950.007 363.424 954.6 370.29C959.193 377.155 961.537 385.11 961.631 394.153H927.967Z" fill="white" fill-opacity="0.08"/>
</svg>
