<svg width="24" height="24" viewBox="0 0 24 24" fill="none" xmlns="http://www.w3.org/2000/svg">
<path d="M9 18.0002V5.83474C9 5.35145 9.34563 4.93732 9.82112 4.85087L19.4106 3.10733C19.7175 3.05153 20 3.28731 20 3.59927V16.0002M9 18.0002C9 19.6571 7.65685 21.0002 6 21.0002C4.34315 21.0002 3 19.6571 3 18.0002C3 16.3433 4.34315 15.0002 6 15.0002C7.65685 15.0002 9 16.3433 9 18.0002ZM20 16.0002C20 17.6571 18.6569 19.0002 17 19.0002C15.3431 19.0002 14 17.6571 14 16.0002C14 14.3433 15.3431 13.0002 17 13.0002C18.6569 13.0002 20 14.3433 20 16.0002Z" stroke="white" stroke-width="1.5" stroke-linecap="round" stroke-linejoin="round"/>
</svg>
