<svg width="64" height="64" viewBox="0 0 64 64" fill="none" xmlns="http://www.w3.org/2000/svg">
<path d="M31.56 0C14.202 0 0 14.202 0 31.56C0 48.918 14.202 63.12 31.56 63.12C48.918 63.12 63.12 48.918 63.12 31.56C63.12 14.202 49.0758 0 31.56 0ZM46.0802 45.6042C45.449 46.5484 44.3444 46.8666 43.395 46.2354C35.9784 41.6592 26.6682 40.7098 15.6196 43.2346C14.5202 43.5554 13.5708 42.7638 13.2552 41.817C12.9396 40.7098 13.7286 39.7656 14.6754 39.45C26.6682 36.7648 37.083 37.872 45.2886 42.9216C46.3932 43.395 46.5484 44.6548 46.0802 45.6042V45.6042ZM49.8674 36.9252C49.0758 38.0298 47.6556 38.5032 46.5484 37.7142C38.0298 32.5068 25.0902 30.9288 15.1488 34.0848C13.889 34.4004 12.4662 33.7692 12.1506 32.5068C11.835 31.2444 12.4662 29.8216 13.7286 29.506C25.248 26.037 39.45 27.7754 49.2336 33.7692C50.183 34.2452 50.6538 35.8206 49.8674 36.9252V36.9252ZM50.183 28.0884C40.0812 22.092 23.1966 21.4608 13.5708 24.4616C11.9928 24.9324 10.4148 23.9856 9.9414 22.5654C9.468 20.9848 10.4148 19.4094 11.835 18.9334C23.0388 15.6196 41.5014 16.2508 53.1812 23.1966C54.5988 23.9856 55.0722 25.8792 54.2832 27.2994C53.4968 28.4066 51.6006 28.8748 50.183 28.0884V28.0884Z" fill="white"/>
</svg>
