<svg width="500" height="500" viewBox="0 0 500 500" fill="none" xmlns="http://www.w3.org/2000/svg">
<rect width="500" height="500" fill="#1E1E1E"/>
<rect width="500" height="500" fill="#5F8AA2"/>
<path d="M100.509 232.98C98.3485 232.98 96.4885 232.59 94.9285 231.81C93.9685 231.27 93.4885 230.64 93.4885 229.92C93.4885 229.2 93.6685 228.63 94.0285 228.21C94.3885 227.73 94.8985 227.49 95.5585 227.49C96.1585 227.49 97.0285 227.73 98.1685 228.21C99.4285 228.69 100.209 228.93 100.509 228.93C101.649 228.93 102.669 228.45 103.569 227.49C104.529 226.47 105.279 225.15 105.819 223.53C106.899 220.53 107.439 217.83 107.439 215.43C107.439 212.85 107.019 210.15 106.179 207.33C105.399 204.45 104.319 201.66 102.939 198.96L101.499 196.08C99.9985 193.08 98.8285 190.71 97.9885 188.97C97.2085 187.23 96.5185 185.34 95.9185 183.3C95.0185 180.42 94.5685 177.63 94.5685 174.93C94.5685 172.77 94.9285 170.73 95.6485 168.81C96.4285 166.89 97.5685 165.27 99.0685 163.95C100.569 162.51 102.429 161.79 104.649 161.79C105.729 161.79 106.779 162.12 107.799 162.78C108.819 163.38 109.539 164.16 109.959 165.12L108.429 167.01C106.869 167.01 105.699 166.71 104.919 166.11C103.839 166.23 102.879 166.77 102.039 167.73C101.259 168.63 100.659 169.68 100.239 170.88C99.8785 172.02 99.6985 173.16 99.6985 174.3C99.6985 176.58 99.9985 178.92 100.599 181.32C101.259 183.66 102.099 185.88 103.119 187.98L109.419 200.58C110.439 202.74 111.249 205.17 111.849 207.87C112.449 210.57 112.749 213.27 112.749 215.97C112.749 219.93 111.789 223.65 109.869 227.13C108.849 228.93 107.529 230.34 105.909 231.36C104.289 232.44 102.489 232.98 100.509 232.98ZM132.696 232.35C131.256 232.35 129.966 232.02 128.826 231.36C127.686 230.76 126.756 229.86 126.036 228.66C124.596 226.14 123.666 223.29 123.246 220.11C122.826 217.35 122.616 214.05 122.616 210.21C122.436 203.73 122.346 195.81 122.346 186.45L122.256 179.52C122.196 179.16 122.166 178.56 122.166 177.72C122.046 175.44 121.986 174.06 121.986 173.58C122.526 172.32 123.156 171.69 123.876 171.69C124.596 171.69 125.226 172.23 125.766 173.31C126.366 174.39 126.666 175.56 126.666 176.82V201.3C126.666 203.7 126.876 206.88 127.296 210.84C127.716 215.76 127.926 218.94 127.926 220.38C127.926 224.82 129.816 227.04 133.596 227.04C137.916 227.04 140.076 210.9 140.076 178.62V173.58V172.77C140.016 172.59 139.986 172.35 139.986 172.05C139.986 171.33 140.136 170.82 140.436 170.52C140.796 170.16 141.456 169.98 142.416 169.98C143.196 169.98 143.796 170.22 144.216 170.7C144.696 171.12 144.996 171.63 145.116 172.23C145.176 172.59 145.206 173.28 145.206 174.3C145.206 175.26 145.116 176.79 144.936 178.89C144.696 180.63 144.576 182.13 144.576 183.39C144.576 184.77 144.516 186 144.396 187.08L144.216 190.86V191.58C144.276 191.82 144.306 192.09 144.306 192.39C144.306 219.03 140.436 232.35 132.696 232.35ZM158.196 231.9C156.876 231.9 156.066 231.33 155.766 230.19C155.526 229.47 155.406 228.45 155.406 227.13C155.406 224.55 155.526 221.37 155.766 217.59C156.066 213.99 156.216 210.78 156.216 207.96C156.216 204.78 156.306 200.01 156.486 193.65L156.666 179.43C156.666 178.89 156.576 178.08 156.396 177L156.126 174.75V174.3C156.126 172.92 156.336 171.9 156.756 171.24C157.176 170.58 157.956 170.25 159.096 170.25C160.656 170.25 162.366 170.7 164.226 171.6C166.086 172.5 167.436 173.64 168.276 175.02C170.016 177.9 170.886 181.5 170.886 185.82C170.886 189.06 170.616 191.79 170.076 194.01C169.536 196.17 168.606 198.18 167.286 200.04C168.906 201.6 169.986 203.61 170.526 206.07C171.126 208.47 171.426 211.5 171.426 215.16C171.426 218.82 170.796 222 169.536 224.7C168.096 227.76 165.996 229.86 163.236 231C161.556 231.6 159.876 231.9 158.196 231.9ZM161.076 197.43C164.196 197.37 165.756 193.74 165.756 186.54C165.756 178.8 164.526 174.75 162.066 174.39C161.406 175.77 161.076 179.01 161.076 184.11V197.43ZM160.536 227.31C162.456 226.89 163.956 225.75 165.036 223.89C166.116 222.03 166.656 219.9 166.656 217.5C166.656 214.98 166.506 212.76 166.206 210.84C165.966 209.34 165.636 208.11 165.216 207.15C164.856 206.13 164.346 205.2 163.686 204.36C162.966 203.46 162.126 202.92 161.166 202.74C160.926 206.16 160.806 210.69 160.806 216.33C160.806 216.69 160.746 217.83 160.626 219.75L160.446 222.81C160.446 222.93 160.476 223.02 160.536 223.08V223.26V227.31ZM217.52 235.68C215.66 235.68 214.73 233.82 214.73 230.1V224.34V218.58C214.73 215.58 214.52 211.65 214.1 206.79C213.62 201.33 213.38 197.58 213.38 195.54L213.56 189.96C213.68 188.34 213.74 186.51 213.74 184.47C213.5 185.25 212.51 189.39 210.77 196.89C209.03 204.15 207.23 210.87 205.37 217.05C203.57 222.99 202.1 225.96 200.96 225.96C199.82 225.96 198.89 225.63 198.17 224.97C197.51 224.25 197.18 223.29 197.18 222.09C197.18 219.45 196.1 213.84 193.94 205.26C191.84 196.68 189.92 189.66 188.18 184.2L187.64 194.37C187.16 202.95 186.83 210.09 186.65 215.79C186.53 221.31 186.47 225.09 186.47 227.13C186.47 227.61 186.5 228.06 186.56 228.48V229.74C186.56 230.76 186.35 231.51 185.93 231.99C185.51 232.53 184.73 232.8 183.59 232.8C182.99 232.8 182.42 232.56 181.88 232.08C181.34 231.66 181.07 231.18 181.07 230.64C181.07 224.52 181.52 215.34 182.42 203.1C183.32 190.86 183.77 181.68 183.77 175.56C183.41 175.02 183.23 174.45 183.23 173.85C183.23 173.13 183.56 172.59 184.22 172.23C184.94 171.81 185.78 171.6 186.74 171.6C187.52 171.6 188.96 174.42 191.06 180.06C193.16 185.7 195.26 192.09 197.36 199.23C199.46 206.37 200.81 211.53 201.41 214.71C201.89 213.09 202.28 211.59 202.58 210.21L203.12 208.05C205.04 199.65 206.96 192.06 208.88 185.28C210.02 181.14 211.13 177.9 212.21 175.56C213.29 173.04 214.28 171.78 215.18 171.78C216.02 171.78 216.77 172.02 217.43 172.5C218.15 172.92 218.51 173.49 218.51 174.21C218.51 178.53 218.69 185.01 219.05 193.65C219.47 201.69 219.68 207.93 219.68 212.37L219.59 217.14L219.41 221.91C219.41 222.63 219.5 223.71 219.68 225.15L219.95 228.3C220.01 228.84 220.04 229.26 220.04 229.56C220.1 229.86 220.13 230.04 220.13 230.1C220.43 230.88 220.58 231.45 220.58 231.81C220.58 232.83 220.28 233.73 219.68 234.51C219.08 235.29 218.36 235.68 217.52 235.68ZM236.199 230.91C230.979 230.91 228.369 230.01 228.369 228.21C228.369 226.77 229.299 226.05 231.159 226.05H232.149L233.049 226.14C233.529 226.14 233.859 225.99 234.039 225.69C234.219 225.39 234.309 224.85 234.309 224.07C234.309 223.05 234.249 221.46 234.129 219.3C233.949 217.86 233.739 215.28 233.499 211.56C232.959 202.38 232.689 195.45 232.689 190.77C232.689 189.09 232.719 187.56 232.779 186.18L232.869 181.59C232.869 179.61 232.779 177.96 232.599 176.64C231.639 176.88 230.949 177 230.529 177C229.089 177 228.369 176.28 228.369 174.84C228.369 174.12 228.819 173.49 229.719 172.95C230.619 172.41 231.759 172.02 233.139 171.78C235.539 171.3 237.669 171.06 239.529 171.06C240.249 171.06 240.849 171.33 241.329 171.87C241.869 172.35 242.139 172.92 242.139 173.58C242.139 174.24 241.929 174.81 241.509 175.29C241.149 175.77 240.669 176.01 240.069 176.01C239.709 176.01 239.409 175.98 239.169 175.92H238.449C237.849 175.92 237.399 176.07 237.099 176.37C236.859 176.61 236.739 177.09 236.739 177.81C236.739 183.63 237.099 192.39 237.819 204.09C237.939 206.25 238.179 209.43 238.539 213.63C238.839 216.39 238.989 219.21 238.989 222.09V225.51C239.349 225.45 239.949 225.42 240.789 225.42C243.309 225.42 244.569 226.47 244.569 228.57V229.11L242.319 230.64C242.259 230.64 242.049 230.67 241.689 230.73C241.389 230.73 240.789 230.73 239.889 230.73C237.969 230.85 236.739 230.91 236.199 230.91ZM253.622 232.26C252.542 232.08 251.612 231.69 250.832 231.09C250.112 230.49 249.692 229.71 249.572 228.75L250.562 227.22C250.922 227.22 251.492 227.34 252.272 227.58C253.172 227.76 253.862 227.85 254.342 227.85C255.422 227.85 256.382 227.37 257.222 226.41C258.122 225.45 258.782 224.19 259.202 222.63C259.982 219.75 260.372 217.17 260.372 214.89C260.372 210.93 259.112 206.76 256.592 202.38L255.602 200.67C254.462 198.69 253.502 196.92 252.722 195.36C251.942 193.8 251.282 192.12 250.742 190.32C250.022 187.98 249.662 185.64 249.662 183.3C249.662 180.66 250.262 177.9 251.462 175.02C252.062 173.64 252.902 172.53 253.982 171.69C255.122 170.79 256.382 170.34 257.762 170.34C258.842 170.34 259.832 170.7 260.732 171.42C261.692 172.08 262.172 172.89 262.172 173.85C262.172 174.39 261.962 174.81 261.542 175.11C261.122 175.41 260.612 175.56 260.012 175.56C259.352 175.56 258.722 175.38 258.122 175.02C256.802 175.08 255.752 176.25 254.972 178.53C254.312 180.63 253.982 182.37 253.982 183.75C253.982 185.49 254.252 187.26 254.792 189.06C255.332 190.8 256.022 192.39 256.862 193.83L258.842 197.43L261.992 203.37C262.832 205.05 263.492 207 263.972 209.22C264.512 211.44 264.782 213.69 264.782 215.97C264.782 219.63 263.942 223.11 262.262 226.41C261.422 228.09 260.222 229.44 258.662 230.46C257.162 231.48 255.482 231.99 253.622 231.99V232.26ZM275.858 232.26C274.778 232.08 273.848 231.69 273.068 231.09C272.348 230.49 271.928 229.71 271.808 228.75L272.798 227.22C273.158 227.22 273.728 227.34 274.508 227.58C275.408 227.76 276.098 227.85 276.578 227.85C277.658 227.85 278.618 227.37 279.458 226.41C280.358 225.45 281.018 224.19 281.438 222.63C282.218 219.75 282.608 217.17 282.608 214.89C282.608 210.93 281.348 206.76 278.828 202.38L277.838 200.67C276.698 198.69 275.738 196.92 274.958 195.36C274.178 193.8 273.518 192.12 272.978 190.32C272.258 187.98 271.898 185.64 271.898 183.3C271.898 180.66 272.498 177.9 273.698 175.02C274.298 173.64 275.138 172.53 276.218 171.69C277.358 170.79 278.618 170.34 279.998 170.34C281.078 170.34 282.068 170.7 282.968 171.42C283.928 172.08 284.408 172.89 284.408 173.85C284.408 174.39 284.198 174.81 283.778 175.11C283.358 175.41 282.848 175.56 282.248 175.56C281.588 175.56 280.958 175.38 280.358 175.02C279.038 175.08 277.988 176.25 277.208 178.53C276.548 180.63 276.218 182.37 276.218 183.75C276.218 185.49 276.488 187.26 277.028 189.06C277.568 190.8 278.258 192.39 279.098 193.83L281.078 197.43L284.228 203.37C285.068 205.05 285.728 207 286.208 209.22C286.748 211.44 287.018 213.69 287.018 215.97C287.018 219.63 286.178 223.11 284.498 226.41C283.658 228.09 282.458 229.44 280.898 230.46C279.398 231.48 277.718 231.99 275.858 231.99V232.26ZM300.974 230.91C295.754 230.91 293.144 230.01 293.144 228.21C293.144 226.77 294.074 226.05 295.934 226.05H296.924L297.824 226.14C298.304 226.14 298.634 225.99 298.814 225.69C298.994 225.39 299.084 224.85 299.084 224.07C299.084 223.05 299.024 221.46 298.904 219.3C298.724 217.86 298.514 215.28 298.274 211.56C297.734 202.38 297.464 195.45 297.464 190.77C297.464 189.09 297.494 187.56 297.554 186.18L297.644 181.59C297.644 179.61 297.554 177.96 297.374 176.64C296.414 176.88 295.724 177 295.304 177C293.864 177 293.144 176.28 293.144 174.84C293.144 174.12 293.594 173.49 294.494 172.95C295.394 172.41 296.534 172.02 297.914 171.78C300.314 171.3 302.444 171.06 304.304 171.06C305.024 171.06 305.624 171.33 306.104 171.87C306.644 172.35 306.914 172.92 306.914 173.58C306.914 174.24 306.704 174.81 306.284 175.29C305.924 175.77 305.444 176.01 304.844 176.01C304.484 176.01 304.184 175.98 303.944 175.92H303.224C302.624 175.92 302.174 176.07 301.874 176.37C301.634 176.61 301.514 177.09 301.514 177.81C301.514 183.63 301.874 192.39 302.594 204.09C302.714 206.25 302.954 209.43 303.314 213.63C303.614 216.39 303.764 219.21 303.764 222.09V225.51C304.124 225.45 304.724 225.42 305.564 225.42C308.084 225.42 309.344 226.47 309.344 228.57V229.11L307.094 230.64C307.034 230.64 306.824 230.67 306.464 230.73C306.164 230.73 305.564 230.73 304.664 230.73C302.744 230.85 301.514 230.91 300.974 230.91ZM327.307 232.71C325.747 232.71 324.307 232.2 322.987 231.18C321.667 230.22 320.587 228.9 319.747 227.22C318.007 223.56 316.927 219.57 316.507 215.25C315.967 211.17 315.697 207.24 315.697 203.46C315.697 202.74 315.727 202.14 315.787 201.66V200.04C315.787 199.74 315.757 199.59 315.697 199.59V197.97L315.787 191.67C315.847 189.75 316.087 186.69 316.507 182.49C316.807 179.61 317.497 176.82 318.577 174.12C318.997 172.92 319.537 172.02 320.197 171.42C320.857 170.76 321.607 170.43 322.447 170.43C324.847 170.43 327.007 170.88 328.927 171.78C330.847 172.62 332.467 173.82 333.787 175.38C334.987 176.88 336.007 178.74 336.847 180.96C337.687 183.12 338.287 185.43 338.647 187.89C339.007 190.41 339.187 193.08 339.187 195.9V196.62C339.187 198.48 339.217 200.16 339.277 201.66L339.367 206.79C339.367 224.07 335.347 232.71 327.307 232.71ZM326.947 228.93C328.027 228.93 329.017 228.51 329.917 227.67C330.817 226.77 331.507 225.57 331.987 224.07C333.127 221.01 333.817 217.71 334.057 214.17C334.357 211.11 334.507 208.47 334.507 206.25C334.507 203.55 334.297 200.01 333.877 195.63C333.517 191.01 333.337 187.56 333.337 185.28V183.66C333.217 181.38 332.437 179.4 330.997 177.72C329.617 176.04 327.907 175.2 325.867 175.2C323.827 175.2 322.477 176.37 321.817 178.71C321.217 180.57 320.917 182.97 320.917 185.91C320.917 187.05 320.947 188.01 321.007 188.79V191.22L320.827 195.36C320.707 196.62 320.647 198 320.647 199.5C320.647 202.74 320.737 205.95 320.917 209.13C321.157 213.63 321.757 218.01 322.717 222.27C323.677 226.71 325.087 228.93 326.947 228.93ZM373.779 231.27C373.059 231.27 372.519 231.09 372.159 230.73C371.799 230.31 371.529 229.62 371.349 228.66L370.809 226.95V226.77V226.5C370.809 224.52 368.739 217.77 364.599 206.25C360.519 194.73 357.309 186.21 354.969 180.69V225.96L355.329 226.59C355.389 226.71 355.509 226.92 355.689 227.22C355.869 227.52 355.959 227.82 355.959 228.12C355.959 228.9 355.689 229.56 355.149 230.1C354.609 230.64 353.949 230.91 353.169 230.91C351.249 230.91 350.289 229.08 350.289 225.42L350.199 210.03C350.139 205.41 350.109 200.25 350.109 194.55C350.109 192.63 350.199 189.84 350.379 186.18C350.559 182.4 350.649 179.61 350.649 177.81C350.649 174.99 351.729 172.77 353.889 171.15V171.69C354.249 171.57 354.489 171.51 354.609 171.51C355.989 171.51 357.729 173.91 359.829 178.71C361.509 182.55 363.009 186.6 364.329 190.86C365.709 195.12 367.509 201.18 369.729 209.04L370.629 212.28C372.009 217.14 373.059 220.62 373.779 222.72C374.979 209.82 375.579 194.58 375.579 177V175.83C375.519 175.47 375.489 175.08 375.489 174.66C375.489 172.86 376.209 171.96 377.649 171.96C378.489 171.96 379.119 172.29 379.539 172.95C380.019 173.61 380.259 174.45 380.259 175.47V182.22C380.139 191.46 379.779 201.48 379.179 212.28C378.579 223.08 377.859 229.17 377.019 230.55C375.279 231.03 374.199 231.27 373.779 231.27ZM393.895 232.26C392.815 232.08 391.885 231.69 391.105 231.09C390.385 230.49 389.965 229.71 389.845 228.75L390.835 227.22C391.195 227.22 391.765 227.34 392.545 227.58C393.445 227.76 394.135 227.85 394.615 227.85C395.695 227.85 396.655 227.37 397.495 226.41C398.395 225.45 399.055 224.19 399.475 222.63C400.255 219.75 400.645 217.17 400.645 214.89C400.645 210.93 399.385 206.76 396.865 202.38L395.875 200.67C394.735 198.69 393.775 196.92 392.995 195.36C392.215 193.8 391.555 192.12 391.015 190.32C390.295 187.98 389.935 185.64 389.935 183.3C389.935 180.66 390.535 177.9 391.735 175.02C392.335 173.64 393.175 172.53 394.255 171.69C395.395 170.79 396.655 170.34 398.035 170.34C399.115 170.34 400.105 170.7 401.005 171.42C401.965 172.08 402.445 172.89 402.445 173.85C402.445 174.39 402.235 174.81 401.815 175.11C401.395 175.41 400.885 175.56 400.285 175.56C399.625 175.56 398.995 175.38 398.395 175.02C397.075 175.08 396.025 176.25 395.245 178.53C394.585 180.63 394.255 182.37 394.255 183.75C394.255 185.49 394.525 187.26 395.065 189.06C395.605 190.8 396.295 192.39 397.135 193.83L399.115 197.43L402.265 203.37C403.105 205.05 403.765 207 404.245 209.22C404.785 211.44 405.055 213.69 405.055 215.97C405.055 219.63 404.215 223.11 402.535 226.41C401.695 228.09 400.495 229.44 398.935 230.46C397.435 231.48 395.755 231.99 393.895 231.99V232.26ZM194.4 346.52C192.78 346.52 191.31 345.98 189.99 344.9C188.67 343.82 187.53 342.35 186.57 340.49C184.83 337.25 183.54 332.81 182.7 327.17C182.1 323.27 181.65 318.77 181.35 313.67L181.26 308.9V304.04C181.2 302.48 181.17 300.59 181.17 298.37C181.17 294.77 181.32 291.59 181.62 288.83C181.86 285.95 182.46 283.1 183.42 280.28C184.38 277.82 185.76 276.08 187.56 275.06C188.64 274.58 189.72 274.34 190.8 274.34C193.98 274.34 196.5 275.6 198.36 278.12C200.4 280.94 201.75 284.09 202.41 287.57C203.37 291.77 203.91 295.79 204.03 299.63C204.27 303.89 204.39 307.91 204.39 311.69V316.82C204.39 317.84 204.24 319.76 203.94 322.58C203.7 324.8 203.58 326.69 203.58 328.25V328.61C203.22 330.29 203.04 332.27 203.04 334.55C203.04 336.23 202.68 337.97 201.96 339.77C201.24 341.57 200.22 343.1 198.9 344.36C197.58 345.8 196.08 346.52 194.4 346.52ZM194.58 341.57C195.78 341.57 196.8 340.46 197.64 338.24C198.36 336.26 198.87 333.86 199.17 331.04C199.53 328.16 199.83 324.92 200.07 321.32C200.19 319.76 200.25 317.75 200.25 315.29L200.16 307.01C200.04 303.77 199.68 299.72 199.08 294.86C198.6 290.72 197.7 287.06 196.38 283.88C195.78 282.38 195.03 281.21 194.13 280.37C193.23 279.53 192.27 279.11 191.25 279.11C189.75 279.11 188.64 280.28 187.92 282.62C187.02 285.08 186.42 287.78 186.12 290.72C185.76 293.9 185.55 296.93 185.49 299.81L185.4 302.78C185.34 303.62 185.31 304.76 185.31 306.2V306.56C185.31 310.58 185.73 315.53 186.57 321.41C187.53 329.39 188.94 335.06 190.8 338.42C192 340.52 193.26 341.57 194.58 341.57ZM216.672 344.63C215.892 341.45 215.502 337.04 215.502 331.4L215.682 323.39C215.802 320.99 215.862 318.32 215.862 315.38C215.502 314.54 215.322 313.79 215.322 313.13V312.86C215.922 311.72 216.222 309.14 216.222 305.12L216.312 300.98C216.372 299.66 216.402 298.19 216.402 296.57C216.402 293.03 216.162 290.24 215.682 288.2C215.862 287.36 216.162 286.64 216.582 286.04C217.002 285.38 217.512 285.05 218.112 285.05H222.072C223.752 285.05 225.222 285.44 226.482 286.22C227.742 286.94 228.702 287.99 229.362 289.37C230.562 291.83 231.162 294.74 231.162 298.1C231.162 300.5 231.132 302.39 231.072 303.77C230.952 305.51 230.652 307.1 230.172 308.54C229.992 309.32 229.722 309.98 229.362 310.52C229.062 311 228.612 311.6 228.012 312.32C227.172 313.34 225.792 314.3 223.872 315.2C223.092 315.62 222.072 316.01 220.812 316.37V326L220.992 331.76L221.172 334.55C221.412 337.91 221.532 340.76 221.532 343.1C221.532 343.82 221.232 344.42 220.632 344.9C220.032 345.44 219.342 345.71 218.562 345.71L216.672 344.63ZM220.902 312.68C224.442 312.14 226.212 307.07 226.212 297.47C226.212 295.73 226.122 294.38 225.942 293.42C225.762 292.7 225.522 292.13 225.222 291.71C224.922 291.23 224.472 290.84 223.872 290.54C223.212 290.18 222.492 290 221.712 290C221.712 289.94 221.382 289.91 220.722 289.91V295.04C220.722 298.58 220.752 301.73 220.812 304.49C220.812 307.61 220.842 309.65 220.902 310.61V312.5V312.68ZM244.145 345.17C243.365 345.17 242.645 344.9 241.985 344.36C241.385 343.82 241.055 343.16 240.995 342.38V340.04V338.24C240.935 337.7 240.905 337.07 240.905 336.35C240.905 335.09 240.815 333.17 240.635 330.59L240.455 324.83C240.455 321.89 240.545 317.51 240.725 311.69C240.965 306.47 241.085 302.09 241.085 298.55C241.085 297.71 240.995 296.45 240.815 294.77C240.635 293.03 240.545 291.77 240.545 290.99C240.545 286.73 241.805 284.6 244.325 284.6C246.305 284.6 248.585 284.99 251.165 285.77C253.805 286.55 255.125 287.48 255.125 288.56C255.125 289.16 254.855 289.73 254.315 290.27C253.835 290.75 253.235 291.14 252.515 291.44C249.995 290.54 247.715 289.94 245.675 289.64C245.735 290.54 245.765 291.83 245.765 293.51C245.765 295.91 245.735 298.07 245.675 299.99C245.495 302.87 245.405 305.03 245.405 306.47L245.675 307.91L247.115 307.82C247.595 307.76 248.195 307.73 248.915 307.73C251.795 307.73 253.235 308.57 253.235 310.25C253.235 310.91 252.965 311.48 252.425 311.96C251.885 312.38 251.195 312.59 250.355 312.59C249.275 312.59 248.435 312.53 247.835 312.41H245.585C245.705 313.97 245.765 316.25 245.765 319.25C245.765 322.25 245.735 324.95 245.675 327.35C245.495 331.01 245.405 333.74 245.405 335.54C245.405 338.9 245.465 340.58 245.585 340.58L248.555 340.49C249.575 340.43 250.805 340.4 252.245 340.4C254.525 340.4 255.665 341.12 255.665 342.56C255.665 343.4 255.275 344.03 254.495 344.45C253.775 344.93 252.875 345.17 251.795 345.17H244.145ZM290.151 344.27C289.431 344.27 288.891 344.09 288.531 343.73C288.171 343.31 287.901 342.62 287.721 341.66L287.181 339.95V339.77V339.5C287.181 337.52 285.111 330.77 280.971 319.25C276.891 307.73 273.681 299.21 271.341 293.69V338.96L271.701 339.59C271.761 339.71 271.881 339.92 272.061 340.22C272.241 340.52 272.331 340.82 272.331 341.12C272.331 341.9 272.061 342.56 271.521 343.1C270.981 343.64 270.321 343.91 269.541 343.91C267.621 343.91 266.661 342.08 266.661 338.42L266.571 323.03C266.511 318.41 266.481 313.25 266.481 307.55C266.481 305.63 266.571 302.84 266.751 299.18C266.931 295.4 267.021 292.61 267.021 290.81C267.021 287.99 268.101 285.77 270.261 284.15V284.69C270.621 284.57 270.861 284.51 270.981 284.51C272.361 284.51 274.101 286.91 276.201 291.71C277.881 295.55 279.381 299.6 280.701 303.86C282.081 308.12 283.881 314.18 286.101 322.04L287.001 325.28C288.381 330.14 289.431 333.62 290.151 335.72C291.351 322.82 291.951 307.58 291.951 290V288.83C291.891 288.47 291.861 288.08 291.861 287.66C291.861 285.86 292.581 284.96 294.021 284.96C294.861 284.96 295.491 285.29 295.911 285.95C296.391 286.61 296.631 287.45 296.631 288.47V295.22C296.511 304.46 296.151 314.48 295.551 325.28C294.951 336.08 294.231 342.17 293.391 343.55C291.651 344.03 290.571 344.27 290.151 344.27ZM313.057 330.59C312.457 330.59 311.887 329.84 311.347 328.34C310.807 326.78 310.537 324.47 310.537 321.41C310.537 320.33 310.597 318.29 310.717 315.29C310.837 313.07 310.897 310.61 310.897 307.91L310.717 293.15L310.537 278.39C310.537 277.43 310.927 276.62 311.707 275.96C312.487 275.24 313.357 274.88 314.317 274.88C314.917 274.88 315.427 275.09 315.847 275.51C316.267 275.93 316.477 276.47 316.477 277.13C316.477 282.41 316.177 289.58 315.577 298.64C314.917 308.66 314.587 315.83 314.587 320.15C314.587 323.33 314.527 325.64 314.407 327.08C314.347 328.46 314.197 329.39 313.957 329.87C313.777 330.35 313.477 330.59 313.057 330.59ZM311.437 345.98C310.717 345.98 310.027 345.65 309.367 344.99C308.767 344.33 308.467 343.52 308.467 342.56C308.467 341.48 308.827 340.55 309.547 339.77C310.267 338.93 311.137 338.51 312.157 338.51C313.237 338.51 314.107 338.93 314.767 339.77C315.487 340.55 315.847 341.57 315.847 342.83C315.847 344.93 314.377 345.98 311.437 345.98Z" fill="white"/>
</svg>
