<svg width="600" height="600" viewBox="0 0 600 600" fill="none" xmlns="http://www.w3.org/2000/svg">
<path d="M311.654 426.5C325.613 464.356 333.654 486 369.154 510.5C393.118 527.039 439.154 536.5 442.154 539C445.154 541.5 442.154 546 438.154 550C434.154 554 391.654 537 369.154 527C346.654 517 342.654 513.5 325.154 495C309.838 478.809 254.695 406.706 241.166 388.957C240.074 387.524 237.758 388.135 237.506 389.92C236.307 398.389 233.422 416.194 228.654 430.5C222.154 450 201.654 472 199.154 474C196.654 476 179.154 488 173.654 487C168.458 486.055 167.278 477.077 167.164 476.088C167.156 476.026 167.149 475.977 167.138 475.915C166.849 474.378 162.848 452.172 168.154 429.5C173.654 406 190.654 389.5 197.154 385C201.438 382.034 212.673 374.941 219.835 370.45C221.568 369.363 223.608 371.273 222.646 373.078L222.154 374C222.154 374 207.654 385 192.154 401.5C176.654 418 174.154 450.5 173.654 462.5C173.154 474.5 174.154 476 177.654 476C181.154 476 202.154 461 213.154 437C224.154 413 226.154 398 226.154 388C226.154 378 222.154 374 222.154 374L220.942 371.173C220.756 370.739 220.432 370.389 220.008 370.178C216.332 368.347 197.992 359.245 192.154 357C187.907 355.367 178.966 353.093 173.277 351.713C171.489 351.28 169.994 353.407 170.635 355.132C170.866 355.753 171.052 356.387 171.154 357C171.654 360 174.154 389 158.154 413C144.555 433.398 120.844 438.626 114.032 439.736C112.978 439.908 112.038 439.182 111.914 438.121C111.106 431.162 108.913 406.315 116.154 388C121.99 373.239 135.839 360.128 143.947 353.359C145.54 352.029 144.383 349.183 142.323 349.427L112.154 353L91.8435 356.963C91.7173 356.988 91.5891 357 91.4605 357H80.8779C80.41 357 79.8992 356.767 80.0499 356.325C80.424 355.225 83.1886 352.734 97.6538 348.5C113.979 343.722 142.672 341.798 153.68 341.212C155.411 341.12 156.258 338.997 155.095 337.713C149.735 331.792 138.865 319.019 135.154 309C130.154 295.5 128.154 281.5 128.154 281.5L158.154 332.5L162.11 337.895C162.888 338.956 164.462 338.989 165.285 337.962L169.651 332.503C169.653 332.501 169.652 332.502 169.654 332.5C169.71 332.429 181.145 317.911 177.654 281.5C174.763 251.349 159.248 235.869 153.938 231.396C153.013 230.617 151.683 230.947 151.167 232.04C147.628 239.531 135.901 265.975 138.154 283C140.801 303 158.154 332.5 158.154 332.5L128.154 281.5C128.154 241.112 149.428 223.574 154.208 220.143C154.792 219.723 155.531 219.711 156.134 220.102C160.128 222.689 175.31 233.877 182.654 258.5C191.154 287 188.654 298 185.654 312.5C182.983 325.41 175.952 337.923 174.442 340.513C174.252 340.838 173.975 341.089 173.638 341.258L155.183 350.485C155.164 350.495 155.149 350.503 155.13 350.513C154.534 350.839 142.946 357.246 135.154 366.5C127.154 376 124.154 383 121.654 398C119.797 409.14 119.319 420.555 119.196 425.693C119.163 427.069 120.502 428.018 121.786 427.522C125.625 426.039 132.879 423.017 138.154 419.5C145.654 414.5 158.154 398 161.654 376.5C164.08 361.597 161.461 353.901 159.625 350.582C158.996 349.443 159.209 347.812 160.298 347.101L168.925 341.475C169.39 341.172 169.96 341.076 170.498 341.209L224.154 354.5H227.562C228.242 354.5 228.871 354.157 229.208 353.566C230.585 351.145 234.398 343.871 239.154 330C245.154 312.5 235.654 277.5 233.654 270.5C232.165 265.291 226.247 251.497 223.316 244.781C222.647 243.248 220.511 243.182 219.734 244.664L216.265 251.289C216.191 251.429 216.14 251.556 216.102 251.71C215.417 254.492 208.201 284.234 209.154 299C210.154 314.5 224.154 354.5 224.154 354.5C224.724 355.212 224 356.224 223.142 355.915L220.39 354.924C219.45 354.586 217.913 354.991 217.202 354.288C215.883 352.983 213.46 348.649 209.154 336C201.154 312.5 200.654 270.5 207.654 251.5C213.089 236.748 221.839 228.326 225.48 225.297C226.365 224.561 227.646 224.83 228.226 225.824C231.778 231.918 243.054 251.679 245.154 260.5C247.654 271 254.654 305.5 252.654 327C250.954 345.274 241.668 364.271 238.92 369.56C238.48 370.407 238.678 371.445 239.405 372.062L254.654 385L271.154 401.5L293.556 427.311C293.936 427.749 294.11 428.326 294.004 428.895C293.446 431.888 291.435 439.734 289.654 409.5C289.563 407.964 288.036 354.534 288.154 353C289.654 333.5 290.831 325.75 295.654 309C299.746 294.786 309.506 273.816 309.652 273.504C309.657 273.494 309.651 273.507 309.655 273.497C309.796 273.182 320.265 249.841 336.654 226.5C344.045 215.973 349.832 208.054 353.967 202.519C355.331 200.695 351.632 194.744 349.358 194.605C344.568 194.314 338.349 192.981 330.654 189.5C309.654 180 290.154 145.5 287.154 131.5C284.665 119.884 285.618 96.5664 286.014 88.9605C286.081 87.6867 287.313 86.8312 288.539 87.1816L296.569 89.4757C296.625 89.4919 296.673 89.5037 296.731 89.5155C297.837 89.7406 310.79 92.5122 335.154 103.5C360.654 115 372.154 148 373.154 154.5C374 160.001 375.205 174.456 375.555 178.768C375.616 179.525 375.242 180.247 374.591 180.637L368.154 184.5L366.162 164.082C366.156 164.027 366.15 163.981 366.14 163.927C365.918 162.731 362.96 147.112 358.154 137.5C353.154 127.5 338.654 113 320.654 105.5C308.707 100.522 302.046 98.1873 298.917 97.18C297.739 96.8004 296.567 97.6266 296.472 98.8613L295.655 109.49C295.654 109.497 295.654 109.496 295.654 109.502C295.639 109.72 294.691 124.566 299.654 133.5C304.654 142.5 320.654 171 333.154 176.5C345.442 181.907 357.731 183.448 358.143 183.499C358.156 183.5 358.16 183.501 358.173 183.502L368.154 184.5L398.154 171.25L387.312 180.86C387.207 180.953 387.112 181.057 387.028 181.17L381.642 188.48C380.88 189.514 381.277 190.988 382.455 191.5L391.614 195.483C391.641 195.494 391.666 195.505 391.693 195.515C392.495 195.81 405.498 200.389 431.154 197C457.654 193.5 460.154 190 473.654 181C486.454 172.466 500.603 154.943 502.035 153.149C502.12 153.042 502.185 152.938 502.246 152.816L504.913 147.482C505.523 146.261 504.758 144.801 503.407 144.608L481.795 141.52C481.701 141.507 481.606 141.5 481.512 141.5H467.154C467.154 141.5 461.654 141.5 451.154 143.5C440.917 145.45 429.73 152.152 429.175 152.487C429.158 152.498 429.145 152.505 429.127 152.515L414.154 161L398.154 171.25L368.154 184.5C368.154 184.5 382.154 164 399.654 142.5C416.979 121.215 419.112 75.4286 419.153 74.5139C419.154 74.4853 419.154 74.4857 419.154 74.457V52C419.154 50.8954 420.049 50 421.154 50H422.154C422.154 50 424.654 50 424.654 66C424.654 82 425.654 80.5 424.654 95.5C423.654 110.5 422.654 122.5 408.654 144.5C401.558 155.65 397.545 160.893 395.312 163.351C394.275 164.494 394.276 164.439 395.568 163.594L418.531 148.58C418.613 148.527 418.698 148.479 418.787 148.438L438.019 139.562C438.109 139.521 438.202 139.486 438.297 139.458L450.154 136L458.654 134.5L468.654 133.5H480.654L502.154 136L513.154 138L516.895 138.935C518.083 139.232 518.725 140.512 518.233 141.634C515.706 147.384 508.344 163.477 500.654 174C491.154 187 476.654 197 465.654 202C454.654 207 439.654 209.5 427.154 210.5C416.231 211.374 412.562 210.72 411.81 210.542C411.705 210.517 411.6 210.491 411.494 210.474L396.196 208.007C396.168 208.002 396.144 207.998 396.117 207.992C395.599 207.885 389.811 206.679 386.154 205.5C380.458 203.664 372.864 199.617 369.67 197.852C368.795 197.368 367.711 197.572 367.104 198.367C361.967 205.084 339.315 235.062 329.154 254.5C318.282 275.299 315.454 284.925 315.177 285.915C315.16 285.975 315.146 286.02 315.125 286.079C314.694 287.27 309.485 301.821 305.654 320.5C306.154 318.5 301.654 340 305.654 320.5C305.154 322.5 299.154 372 301.154 388C303.154 404 306.475 412.456 311.654 426.5Z" fill="#D9D9D9"/>
</svg>
